<svg width="375" height="731" viewBox="0 0 375 731" fill="none" xmlns="http://www.w3.org/2000/svg">
<g clip-path="url(#clip0_2_12)">
<mask id="mask0_2_12" style="mask-type:luminance" maskUnits="userSpaceOnUse" x="-24" y="0" width="424" height="731">
<path d="M400 0H-24V731H400V0Z" fill="white"/>
</mask>
<g mask="url(#mask0_2_12)">
<path d="M400 0H-24V731H400V0Z" fill="#2D5C3A"/>
<path fill-rule="evenodd" clip-rule="evenodd" d="M-7.32195 26.8441C-6.80741 22.3878 -8.21327 17.924 -11.2715 14.3038C-14.3153 10.674 -18.801 8.13535 -23.8749 7.17111C-24.3927 11.6283 -22.9883 16.0938 -19.9296 19.7151C-16.8858 23.3463 -12.3979 25.8828 -7.32195 26.8441ZM-9.38047 13.1233C-8.57269 14.089 -7.86338 15.1132 -7.26047 16.1843C-6.65993 15.1136 -5.95348 14.0895 -5.14895 13.1233C-4.22447 12.0307 -3.1755 11.0205 -2.01771 10.1079C-2.49573 6.35513 -4.31441 2.82305 -7.22231 0C-10.1432 2.83967 -11.9634 6.39428 -12.429 10.1682C-11.3048 11.0663 -10.2839 12.0559 -9.38047 13.1233ZM9.34549 7.16928C4.27114 8.13383 -0.214615 10.6731 -3.25791 14.3038C-4.42745 15.6944 -5.36513 17.2193 -6.04359 18.8342C-5.14403 21.2399 -4.77515 23.7695 -4.95603 26.2922C-0.79406 25.0814 2.82662 22.7824 5.40229 19.7151C8.46021 16.0935 9.86393 11.6262 9.34549 7.16928Z" fill="#49BB76" fill-opacity="0.72"/>
<path d="M-24.0191 66.0166L-7.03999 50.4555L9.93909 66.0166H-24.0191Z" fill="#49BB76" fill-opacity="0.72"/>
<path d="M-20.0928 55.821L-7.03999 43.86L6.01285 55.821H-20.0928ZM-9.99951 56.7384H-4.08047V73.1037H-9.99951V56.7384Z" fill="#49BB76" fill-opacity="0.72"/>
<path d="M-18.6491 103.504H-23.9703V101.075H-18.6491V103.504ZM-16.2493 96.0827L-20.0059 92.8443L-18.0237 91.1356L-14.2671 94.374L-16.2493 96.0827ZM-16.2493 108.541L-14.2671 110.249L-18.0237 113.49L-20.0038 111.779L-16.2493 108.541ZM-5.65563 92.3052H-8.47523V87.7164H-5.65563V92.3052ZM-8.47523 112.32H-5.65563V116.907H-8.47523V112.32ZM2.16929 96.0827L0.134094 94.374L3.94162 91.1356L5.92381 92.8443L2.16929 96.0827ZM2.16929 108.495L5.92381 111.779L3.94162 113.49L0.187096 110.248L2.17142 108.493L2.16929 108.495ZM9.89246 101.075V103.504H4.57126V101.075H9.89034H9.89246Z" fill="#9BB46C" fill-opacity="0.59"/>
<path d="M-16.1517 102.311C-16.1517 103.315 -15.9223 104.309 -15.4766 105.237C-15.0308 106.165 -14.3774 107.007 -13.5538 107.718C-12.7301 108.428 -11.7523 108.991 -10.6761 109.375C-9.59993 109.759 -8.4465 109.957 -7.28167 109.957C-6.11683 109.957 -4.9634 109.759 -3.88724 109.375C-2.81107 108.991 -1.83324 108.428 -1.00957 107.718C-0.185912 107.007 0.467453 106.165 0.913216 105.237C1.35898 104.309 1.58841 103.315 1.58841 102.311C1.58841 101.307 1.35898 100.312 0.913216 99.3847C0.467453 98.457 -0.185912 97.6141 -1.00957 96.9041C-1.83324 96.194 -2.81107 95.6308 -3.88724 95.2466C-4.9634 94.8623 -6.11683 94.6645 -7.28167 94.6645C-8.4465 94.6645 -9.59993 94.8623 -10.6761 95.2466C-11.7523 95.6308 -12.7301 96.194 -13.5538 96.9041C-14.3774 97.6141 -15.0308 98.457 -15.4766 99.3847C-15.9223 100.312 -16.1517 101.307 -16.1517 102.311Z" fill="#9BB46C" fill-opacity="0.59"/>
<path d="M-0.211475 152.883C-4.5702 156.641 -11.6362 156.639 -15.9928 152.883C-20.3515 149.126 -20.3515 143.035 -15.9928 139.279C-13.9236 137.494 -10.4447 135.303 -4.93908 135.303C5.1288 135.303 8.2558 133.015 8.2558 133.015C8.2558 143.444 4.14724 149.126 -0.211475 152.883Z" fill="#6CB4A8" fill-opacity="0.63"/>
<path d="M-24.0191 197.597L-7.03999 182.035L9.93909 197.597H-24.0191Z" fill="#6CB4A8" fill-opacity="0.63"/>
<path d="M-20.0928 187.401L-7.03999 175.44L6.01285 187.401H-20.0928ZM-9.99951 188.318H-4.08047V204.684H-9.99951V188.318Z" fill="#6CB4A8" fill-opacity="0.63"/>
<path fill-rule="evenodd" clip-rule="evenodd" d="M-8.29291 248.516C-8.13815 244.01 -10.9811 242.31 -14.4494 241.19C-15.6027 245.044 -12.4227 248.253 -8.29291 248.516ZM-7.50851 228.39C-5.29735 224.306 -7.12903 221.767 -9.80871 219.556C-12.622 222.706 -11.174 226.738 -7.50851 228.39ZM-6.25983 239.753C-6.41247 235.247 -3.57167 233.544 -0.101233 232.427C1.04781 236.281 -2.13007 239.49 -6.25983 239.753ZM-6.25983 246.7C-6.41247 242.195 -3.57167 240.495 -0.101233 239.375C1.04781 243.227 -2.13007 246.438 -6.25983 246.7ZM-6.25983 232.814C-6.41247 228.308 -3.57167 226.605 -0.101233 225.484C1.04781 229.342 -2.13007 232.548 -6.25983 232.814ZM-8.29291 241.568C-8.13815 237.063 -10.9811 235.358 -14.4494 234.243C-15.6027 238.098 -12.4227 241.305 -8.29291 241.568ZM-8.29291 234.625C-8.13815 230.117 -10.9811 228.414 -14.4494 227.292C-15.6027 231.15 -12.4227 234.357 -8.29291 234.625Z" fill="#9BB46C" fill-opacity="0.59"/>
<path d="M-24.0191 285.317L-7.03999 269.755L9.93909 285.317H-24.0191Z" fill="#49BB76" fill-opacity="0.72"/>
<path d="M-20.0928 275.121L-7.03999 263.16L6.01285 275.121H-20.0928ZM-9.99951 276.038H-4.08047V292.404H-9.99951V276.038Z" fill="#49BB76" fill-opacity="0.72"/>
<path fill-rule="evenodd" clip-rule="evenodd" d="M-7.32195 333.864C-6.80741 329.408 -8.21327 324.944 -11.2715 321.324C-14.3153 317.694 -18.801 315.155 -23.8749 314.191C-24.3927 318.648 -22.9883 323.114 -19.9296 326.735C-16.8858 330.366 -12.3979 332.903 -7.32195 333.864ZM-9.38047 320.143C-8.57269 321.109 -7.86338 322.133 -7.26047 323.204C-6.65993 322.134 -5.95348 321.109 -5.14895 320.143C-4.22447 319.051 -3.1755 318.04 -2.01771 317.128C-2.49573 313.375 -4.31441 309.843 -7.22231 307.02C-10.1432 309.86 -11.9634 313.414 -12.429 317.188C-11.3048 318.086 -10.2839 319.076 -9.38047 320.143ZM9.34549 314.189C4.27114 315.154 -0.214615 317.693 -3.25791 321.324C-4.42745 322.714 -5.36513 324.239 -6.04359 325.854C-5.14403 328.26 -4.77515 330.789 -4.95603 333.312C-0.79406 332.101 2.82662 329.802 5.40229 326.735C8.46021 323.114 9.86393 318.646 9.34549 314.189Z" fill="#9BB46C" fill-opacity="0.59"/>
<path d="M-18.6491 366.664H-23.9703V364.235H-18.6491V366.664ZM-16.2493 359.243L-20.0059 356.004L-18.0237 354.296L-14.2671 357.534L-16.2493 359.243ZM-16.2493 371.701L-14.2671 373.409L-18.0237 376.65L-20.0038 374.939L-16.2493 371.701ZM-5.65563 355.465H-8.47523V350.876H-5.65563V355.465ZM-8.47523 375.48H-5.65563V380.067H-8.47523V375.48ZM2.16929 359.243L0.134094 357.534L3.94162 354.296L5.92381 356.004L2.16929 359.243ZM2.16929 371.655L5.92381 374.939L3.94162 376.65L0.187096 373.408L2.17142 371.653L2.16929 371.655ZM9.89246 364.235V366.664H4.57126V364.235H9.89034H9.89246Z" fill="#49BB76" fill-opacity="0.72"/>
<path d="M-16.1517 365.471C-16.1517 366.475 -15.9223 367.469 -15.4766 368.397C-15.0308 369.325 -14.3774 370.167 -13.5538 370.877C-12.7301 371.588 -11.7523 372.151 -10.6761 372.535C-9.59993 372.919 -8.4465 373.117 -7.28167 373.117C-6.11683 373.117 -4.9634 372.919 -3.88724 372.535C-2.81107 372.151 -1.83324 371.588 -1.00957 370.877C-0.185912 370.167 0.467453 369.325 0.913216 368.397C1.35898 367.469 1.58841 366.475 1.58841 365.471C1.58841 364.467 1.35898 363.472 0.913216 362.545C0.467453 361.617 -0.185912 360.774 -1.00957 360.064C-1.83324 359.354 -2.81107 358.791 -3.88724 358.407C-4.9634 358.022 -6.11683 357.825 -7.28167 357.825C-8.4465 357.825 -9.59993 358.022 -10.6761 358.407C-11.7523 358.791 -12.7301 359.354 -13.5538 360.064C-14.3774 360.774 -15.0308 361.617 -15.4766 362.545C-15.9223 363.472 -16.1517 364.467 -16.1517 365.471Z" fill="#49BB76" fill-opacity="0.72"/>
<path fill-rule="evenodd" clip-rule="evenodd" d="M-16.6351 414.786C-16.6351 408.748 -6.87676 395.4 -6.87676 395.4C-6.87676 395.4 2.87948 408.75 2.87948 414.786C2.87948 418.892 -0.313236 423.505 -6.87676 423.505C-13.4382 423.505 -16.6351 418.892 -16.6351 414.786Z" fill="#6CB4A8" fill-opacity="0.63"/>
<path fill-rule="evenodd" clip-rule="evenodd" d="M43.5581 26.8441C44.0726 22.3878 42.6667 17.924 39.6085 14.3038C36.5647 10.674 32.079 8.13535 27.0051 7.17111C26.4873 11.6283 27.8917 16.0938 30.9504 19.7151C33.9942 23.3463 38.4821 25.8828 43.5581 26.8441ZM41.4995 13.1233C42.3073 14.089 43.0166 15.1132 43.6195 16.1843C44.2201 15.1136 44.9265 14.0895 45.7311 13.1233C46.6555 12.0307 47.7045 11.0205 48.8623 10.1079C48.3843 6.35513 46.5656 2.82305 43.6577 0C40.7368 2.83967 38.9166 6.39428 38.451 10.1682C39.5752 11.0663 40.5961 12.0559 41.4995 13.1233ZM60.2255 7.16928C55.1511 8.13383 50.6654 10.6731 47.6221 14.3038C46.4526 15.6944 45.5149 17.2193 44.8364 18.8342C45.736 21.2399 46.1049 23.7695 45.924 26.2922C50.0859 25.0814 53.7066 22.7824 56.2823 19.7151C59.3402 16.0935 60.7439 11.6262 60.2255 7.16928Z" fill="#49BB76" fill-opacity="0.72"/>
<path d="M50.6685 65.1632C46.3098 68.9205 39.2438 68.9187 34.8872 65.1632C30.5285 61.4058 30.5285 55.3148 34.8872 51.5593C36.9564 49.7738 40.4353 47.5826 45.9409 47.5826C56.0088 47.5826 59.1358 45.2946 59.1358 45.2946C59.1358 55.7241 55.0272 61.4058 50.6685 65.1632Z" fill="#49BB76" fill-opacity="0.72"/>
<path d="M33.7128 65.1065L32.2902 62.5444L45.9367 54.571L33.7128 65.1065Z" fill="#49BB76" fill-opacity="0.72"/>
<path d="M45.9367 54.571L48.3747 56.6726L30.9843 71.6636L28.5442 69.562L45.9367 54.571Z" fill="#49BB76" fill-opacity="0.72"/>
<path d="M32.2309 103.504H26.9097V101.075H32.2309V103.504ZM34.6307 96.0827L30.8741 92.8443L32.8563 91.1356L36.6129 94.374L34.6307 96.0827ZM34.6307 108.541L36.6129 110.249L32.8563 113.49L30.8762 111.779L34.6307 108.541ZM45.2244 92.3052H42.4048V87.7164H45.2244V92.3052ZM42.4048 112.32H45.2244V116.907H42.4048V112.32ZM53.0493 96.0827L51.0141 94.374L54.8216 91.1356L56.8038 92.8443L53.0493 96.0827ZM53.0493 108.495L56.8038 111.779L54.8216 113.49L51.0671 110.248L53.0514 108.493L53.0493 108.495ZM60.7724 101.075V103.504H55.4512V101.075H60.7703H60.7724Z" fill="#6CB4A8" fill-opacity="0.63"/>
<path d="M34.7282 102.311C34.7282 103.315 34.9577 104.309 35.4034 105.237C35.8492 106.165 36.5026 107.007 37.3262 107.718C38.1499 108.428 39.1277 108.991 40.2039 109.375C41.2801 109.759 42.4335 109.957 43.5983 109.957C44.7632 109.957 45.9166 109.759 46.9928 109.375C48.0689 108.991 49.0468 108.428 49.8704 107.718C50.6941 107.007 51.3474 106.165 51.7932 105.237C52.239 104.309 52.4684 103.315 52.4684 102.311C52.4684 101.307 52.239 100.312 51.7932 99.3847C51.3474 98.457 50.6941 97.6141 49.8704 96.9041C49.0468 96.194 48.0689 95.6308 46.9928 95.2466C45.9166 94.8623 44.7632 94.6645 43.5983 94.6645C42.4335 94.6645 41.2801 94.8623 40.2039 95.2466C39.1277 95.6308 38.1499 96.194 37.3262 96.9041C36.5026 97.6141 35.8492 98.457 35.4034 99.3847C34.9577 100.312 34.7282 101.307 34.7282 102.311Z" fill="#6CB4A8" fill-opacity="0.63"/>
<path d="M26.8609 153.737L43.84 138.175L60.8191 153.737H26.8609Z" fill="#9BB46C" fill-opacity="0.59"/>
<path d="M30.7872 143.541L43.84 131.58L56.8929 143.541H30.7872ZM40.8805 144.458H46.7995V160.824H40.8805V144.458Z" fill="#9BB46C" fill-opacity="0.59"/>
<path d="M32.2309 191.224H26.9097V188.795H32.2309V191.224ZM34.6307 183.803L30.8741 180.564L32.8563 178.856L36.6129 182.094L34.6307 183.803ZM34.6307 196.261L36.6129 197.969L32.8563 201.21L30.8762 199.499L34.6307 196.261ZM45.2244 180.025H42.4048V175.436H45.2244V180.025ZM42.4048 200.04H45.2244V204.627H42.4048V200.04ZM53.0493 183.803L51.0141 182.094L54.8216 178.856L56.8038 180.564L53.0493 183.803ZM53.0493 196.215L56.8038 199.499L54.8216 201.21L51.0671 197.968L53.0514 196.213L53.0493 196.215ZM60.7724 188.795V191.224H55.4512V188.795H60.7703H60.7724Z" fill="#6CB4A8" fill-opacity="0.63"/>
<path d="M34.7282 190.031C34.7282 191.035 34.9577 192.029 35.4034 192.957C35.8492 193.885 36.5026 194.727 37.3262 195.437C38.1499 196.148 39.1277 196.711 40.2039 197.095C41.2801 197.479 42.4335 197.677 43.5983 197.677C44.7632 197.677 45.9166 197.479 46.9928 197.095C48.0689 196.711 49.0468 196.148 49.8704 195.437C50.6941 194.727 51.3474 193.885 51.7932 192.957C52.239 192.029 52.4684 191.035 52.4684 190.031C52.4684 189.027 52.239 188.032 51.7932 187.105C51.3474 186.177 50.6941 185.334 49.8704 184.624C49.0468 183.914 48.0689 183.351 46.9928 182.967C45.9166 182.582 44.7632 182.385 43.5983 182.385C42.4335 182.385 41.2801 182.582 40.2039 182.967C39.1277 183.351 38.1499 183.914 37.3262 184.624C36.5026 185.334 35.8492 186.177 35.4034 187.105C34.9577 188.032 34.7282 189.027 34.7282 190.031Z" fill="#6CB4A8" fill-opacity="0.63"/>
<path fill-rule="evenodd" clip-rule="evenodd" d="M43.5581 246.144C44.0726 241.688 42.6667 237.224 39.6085 233.604C36.5647 229.974 32.079 227.435 27.0051 226.471C26.4873 230.928 27.8917 235.394 30.9504 239.015C33.9942 242.646 38.4821 245.183 43.5581 246.144ZM41.4995 232.423C42.3073 233.389 43.0166 234.413 43.6195 235.484C44.2201 234.414 44.9265 233.389 45.7311 232.423C46.6555 231.331 47.7045 230.32 48.8623 229.408C48.3843 225.655 46.5656 222.123 43.6577 219.3C40.7368 222.14 38.9166 225.694 38.451 229.468C39.5752 230.366 40.5961 231.356 41.4995 232.423ZM60.2255 226.469C55.1511 227.434 50.6654 229.973 47.6221 233.604C46.4526 234.994 45.5149 236.519 44.8364 238.134C45.736 240.54 46.1049 243.07 45.924 245.592C50.0859 244.381 53.7066 242.082 56.2823 239.015C59.3402 235.394 60.7439 230.926 60.2255 226.469Z" fill="#6CB4A8" fill-opacity="0.63"/>
<path d="M26.8609 285.317L43.84 269.755L60.8191 285.317H26.8609Z" fill="#49BB76" fill-opacity="0.72"/>
<path d="M30.7872 275.121L43.84 263.16L56.8929 275.121H30.7872ZM40.8805 276.038H46.7995V292.404H40.8805V276.038Z" fill="#49BB76" fill-opacity="0.72"/>
<path fill-rule="evenodd" clip-rule="evenodd" d="M42.5871 336.236C42.7419 331.73 39.8989 330.03 36.4306 328.91C35.2773 332.764 38.4573 335.973 42.5871 336.236ZM43.3715 316.11C45.5827 312.026 43.751 309.487 41.0713 307.276C38.2581 310.426 39.706 314.458 43.3715 316.11ZM44.6202 327.473C44.4675 322.967 47.3083 321.264 50.7788 320.147C51.9278 324.001 48.7499 327.21 44.6202 327.473ZM44.6202 334.42C44.4675 329.915 47.3083 328.215 50.7788 327.095C51.9278 330.947 48.7499 334.158 44.6202 334.42ZM44.6202 320.534C44.4675 316.028 47.3083 314.325 50.7788 313.204C51.9278 317.062 48.7499 320.268 44.6202 320.534ZM42.5871 329.288C42.7419 324.783 39.8989 323.078 36.4306 321.963C35.2773 325.818 38.4573 329.025 42.5871 329.288ZM42.5871 322.345C42.7419 317.837 39.8989 316.134 36.4306 315.012C35.2773 318.87 38.4573 322.077 42.5871 322.345Z" fill="#6CB4A8" fill-opacity="0.63"/>
<path fill-rule="evenodd" clip-rule="evenodd" d="M43.5581 377.724C44.0726 373.268 42.6667 368.804 39.6085 365.184C36.5647 361.554 32.079 359.015 27.0051 358.051C26.4873 362.508 27.8917 366.974 30.9504 370.595C33.9942 374.226 38.4821 376.763 43.5581 377.724ZM41.4995 364.003C42.3073 364.969 43.0166 365.993 43.6195 367.064C44.2201 365.994 44.9265 364.969 45.7311 364.003C46.6555 362.911 47.7045 361.901 48.8623 360.988C48.3843 357.235 46.5656 353.703 43.6577 350.88C40.7368 353.72 38.9166 357.274 38.451 361.048C39.5752 361.946 40.5961 362.936 41.4995 364.003ZM60.2255 358.049C55.1511 359.014 50.6654 361.553 47.6221 365.184C46.4526 366.574 45.5149 368.099 44.8364 369.714C45.736 372.12 46.1049 374.65 45.924 377.172C50.0859 375.961 53.7066 373.662 56.2823 370.595C59.3402 366.974 60.7439 362.506 60.2255 358.049Z" fill="#9BB46C" fill-opacity="0.59"/>
<path fill-rule="evenodd" clip-rule="evenodd" d="M43.5581 421.584C44.0726 417.128 42.6667 412.664 39.6085 409.044C36.5647 405.414 32.079 402.875 27.0051 401.911C26.4873 406.368 27.8917 410.834 30.9504 414.455C33.9942 418.086 38.4821 420.623 43.5581 421.584ZM41.4995 407.863C42.3073 408.829 43.0166 409.853 43.6195 410.924C44.2201 409.854 44.9265 408.829 45.7311 407.863C46.6555 406.771 47.7045 405.76 48.8623 404.848C48.3843 401.095 46.5656 397.563 43.6577 394.74C40.7368 397.58 38.9166 401.134 38.451 404.908C39.5752 405.806 40.5961 406.796 41.4995 407.863ZM60.2255 401.909C55.1511 402.874 50.6654 405.413 47.6221 409.044C46.4526 410.434 45.5149 411.959 44.8364 413.574C45.736 415.98 46.1049 418.509 45.924 421.032C50.0859 419.821 53.7066 417.522 56.2823 414.455C59.3402 410.834 60.7439 406.366 60.2255 401.909Z" fill="#6CB4A8" fill-opacity="0.63"/>
<path d="M83.1109 15.7842H77.7897V13.3554H83.1109V15.7842ZM85.5107 8.36269L81.7541 5.12436L83.7363 3.41565L87.4929 6.65398L85.5107 8.36269ZM85.5107 20.8208L87.4929 22.5295L83.7363 25.7696L81.7562 24.0591L85.5107 20.8208ZM96.1044 4.58525H93.2848V-0.00360107H96.1044V4.58525ZM93.2848 24.6H96.1044V29.1871H93.2848V24.6ZM103.929 8.36269L101.894 6.65398L105.702 3.41565L107.684 5.12436L103.929 8.36269ZM103.929 20.7751L107.684 24.0591L105.702 25.7696L101.947 22.5276L103.931 20.7732L103.929 20.7751ZM111.652 13.3554V15.7842H106.331V13.3554H111.65H111.652Z" fill="#49BB76" fill-opacity="0.72"/>
<path d="M85.6082 14.5908C85.6082 15.5949 85.8377 16.5892 86.2834 17.5169C86.7292 18.4446 87.3826 19.2875 88.2062 19.9975C89.0299 20.7075 90.0077 21.2707 91.0839 21.655C92.1601 22.0393 93.3135 22.237 94.4783 22.237C95.6432 22.237 96.7966 22.0393 97.8728 21.655C98.9489 21.2707 99.9268 20.7075 100.75 19.9975C101.574 19.2875 102.227 18.4446 102.673 17.5169C103.119 16.5892 103.348 15.5949 103.348 14.5908C103.348 13.5867 103.119 12.5924 102.673 11.6647C102.227 10.737 101.574 9.89408 100.75 9.18406C99.9268 8.47404 98.9489 7.91082 97.8728 7.52656C96.7966 7.1423 95.6432 6.94452 94.4783 6.94452C93.3135 6.94452 92.1601 7.1423 91.0839 7.52656C90.0077 7.91082 89.0299 8.47404 88.2062 9.18406C87.3826 9.89408 86.7292 10.737 86.2834 11.6647C85.8377 12.5924 85.6082 13.5867 85.6082 14.5908Z" fill="#49BB76" fill-opacity="0.72"/>
<path fill-rule="evenodd" clip-rule="evenodd" d="M85.1249 63.9059C85.1249 57.8678 94.8832 44.5197 94.8832 44.5197C94.8832 44.5197 104.639 57.8696 104.639 63.9059C104.639 68.0123 101.447 72.6249 94.8832 72.6249C88.3218 72.6249 85.1249 68.0123 85.1249 63.9059Z" fill="#49BB76" fill-opacity="0.72"/>
<path d="M77.7409 109.877L94.72 94.3155L111.699 109.877H77.7409Z" fill="#6CB4A8" fill-opacity="0.63"/>
<path d="M81.6672 99.681L94.72 87.72L107.773 99.681H81.6672ZM91.7605 100.598H97.6795V116.964H91.7605V100.598Z" fill="#6CB4A8" fill-opacity="0.63"/>
<path fill-rule="evenodd" clip-rule="evenodd" d="M93.4671 160.796C93.6219 156.29 90.7789 154.59 87.3106 153.47C86.1573 157.324 89.3373 160.533 93.4671 160.796ZM94.2515 140.67C96.4627 136.586 94.631 134.047 91.9513 131.836C89.1381 134.986 90.586 139.018 94.2515 140.67ZM95.5002 152.033C95.3475 147.527 98.1883 145.824 101.659 144.707C102.808 148.561 99.6299 151.77 95.5002 152.033ZM95.5002 158.98C95.3475 154.475 98.1883 152.775 101.659 151.655C102.808 155.507 99.6299 158.718 95.5002 158.98ZM95.5002 145.094C95.3475 140.588 98.1883 138.885 101.659 137.764C102.808 141.622 99.6299 144.828 95.5002 145.094ZM93.4671 153.848C93.6219 149.343 90.7789 147.638 87.3106 146.523C86.1573 150.378 89.3373 153.585 93.4671 153.848ZM93.4671 146.905C93.6219 142.397 90.7789 140.694 87.3106 139.572C86.1573 143.43 89.3373 146.637 93.4671 146.905Z" fill="#9BB46C" fill-opacity="0.59"/>
<path d="M83.1109 191.224H77.7897V188.795H83.1109V191.224ZM85.5107 183.803L81.7541 180.564L83.7363 178.856L87.4929 182.094L85.5107 183.803ZM85.5107 196.261L87.4929 197.969L83.7363 201.21L81.7562 199.499L85.5107 196.261ZM96.1044 180.025H93.2848V175.436H96.1044V180.025ZM93.2848 200.04H96.1044V204.627H93.2848V200.04ZM103.929 183.803L101.894 182.094L105.702 178.856L107.684 180.564L103.929 183.803ZM103.929 196.215L107.684 199.499L105.702 201.21L101.947 197.968L103.931 196.213L103.929 196.215ZM111.652 188.795V191.224H106.331V188.795H111.65H111.652Z" fill="#6CB4A8" fill-opacity="0.63"/>
<path d="M85.6082 190.031C85.6082 191.035 85.8377 192.029 86.2834 192.957C86.7292 193.885 87.3826 194.727 88.2062 195.437C89.0299 196.148 90.0077 196.711 91.0839 197.095C92.1601 197.479 93.3135 197.677 94.4783 197.677C95.6432 197.677 96.7966 197.479 97.8728 197.095C98.9489 196.711 99.9268 196.148 100.75 195.437C101.574 194.727 102.227 193.885 102.673 192.957C103.119 192.029 103.348 191.035 103.348 190.031C103.348 189.027 103.119 188.032 102.673 187.105C102.227 186.177 101.574 185.334 100.75 184.624C99.9268 183.914 98.9489 183.351 97.8728 182.967C96.7966 182.582 95.6432 182.385 94.4783 182.385C93.3135 182.385 92.1601 182.582 91.0839 182.967C90.0077 183.351 89.0299 183.914 88.2062 184.624C87.3826 185.334 86.7292 186.177 86.2834 187.105C85.8377 188.032 85.6082 189.027 85.6082 190.031Z" fill="#6CB4A8" fill-opacity="0.63"/>
<path fill-rule="evenodd" clip-rule="evenodd" d="M85.1249 239.346C85.1249 233.308 94.8832 219.96 94.8832 219.96C94.8832 219.96 104.639 233.31 104.639 239.346C104.639 243.452 101.447 248.065 94.8832 248.065C88.3218 248.065 85.1249 243.452 85.1249 239.346Z" fill="#9BB46C" fill-opacity="0.59"/>
<path fill-rule="evenodd" clip-rule="evenodd" d="M94.438 290.004C94.9526 285.548 93.5467 281.084 90.4885 277.464C87.4447 273.834 82.959 271.295 77.8851 270.331C77.3673 274.788 78.7717 279.254 81.8304 282.875C84.8742 286.506 89.3621 289.043 94.438 290.004ZM92.3795 276.283C93.1873 277.249 93.8966 278.273 94.4995 279.344C95.1001 278.274 95.8065 277.249 96.611 276.283C97.5355 275.191 98.5845 274.181 99.7423 273.268C99.2643 269.515 97.4456 265.983 94.5377 263.16C91.6168 266 89.7966 269.554 89.331 273.328C90.4552 274.226 91.4761 275.216 92.3795 276.283ZM111.105 270.329C106.031 271.294 101.545 273.833 98.5021 277.464C97.3325 278.854 96.3949 280.379 95.7164 281.994C96.616 284.4 96.9848 286.93 96.804 289.452C100.966 288.241 104.587 285.942 107.162 282.875C110.22 279.254 111.624 274.786 111.105 270.329Z" fill="#6CB4A8" fill-opacity="0.63"/>
<path d="M83.1109 322.804H77.7897V320.375H83.1109V322.804ZM85.5107 315.383L81.7541 312.144L83.7363 310.436L87.4929 313.674L85.5107 315.383ZM85.5107 327.841L87.4929 329.549L83.7363 332.79L81.7562 331.079L85.5107 327.841ZM96.1044 311.605H93.2848V307.016H96.1044V311.605ZM93.2848 331.62H96.1044V336.207H93.2848V331.62ZM103.929 315.383L101.894 313.674L105.702 310.436L107.684 312.144L103.929 315.383ZM103.929 327.795L107.684 331.079L105.702 332.79L101.947 329.548L103.931 327.793L103.929 327.795ZM111.652 320.375V322.804H106.331V320.375H111.65H111.652Z" fill="#6CB4A8" fill-opacity="0.63"/>
<path d="M85.6082 321.611C85.6082 322.615 85.8377 323.609 86.2834 324.537C86.7292 325.465 87.3826 326.307 88.2062 327.017C89.0299 327.728 90.0077 328.291 91.0839 328.675C92.1601 329.059 93.3135 329.257 94.4783 329.257C95.6432 329.257 96.7966 329.059 97.8728 328.675C98.9489 328.291 99.9268 327.728 100.75 327.017C101.574 326.307 102.227 325.465 102.673 324.537C103.119 323.609 103.348 322.615 103.348 321.611C103.348 320.607 103.119 319.612 102.673 318.685C102.227 317.757 101.574 316.914 100.75 316.204C99.9268 315.494 98.9489 314.931 97.8728 314.547C96.7966 314.162 95.6432 313.965 94.4783 313.965C93.3135 313.965 92.1601 314.162 91.0839 314.547C90.0077 314.931 89.0299 315.494 88.2062 316.204C87.3826 316.914 86.7292 317.757 86.2834 318.685C85.8377 319.612 85.6082 320.607 85.6082 321.611Z" fill="#6CB4A8" fill-opacity="0.63"/>
<path d="M77.7409 373.037L94.72 357.475L111.699 373.037H77.7409Z" fill="#9BB46C" fill-opacity="0.59"/>
<path d="M81.6672 362.841L94.72 350.88L107.773 362.841H81.6672ZM91.7605 363.758H97.6795V380.124H91.7605V363.758Z" fill="#9BB46C" fill-opacity="0.59"/>
<path fill-rule="evenodd" clip-rule="evenodd" d="M93.4671 423.956C93.6219 419.45 90.7789 417.75 87.3106 416.63C86.1573 420.484 89.3373 423.693 93.4671 423.956ZM94.2515 403.83C96.4627 399.746 94.631 397.207 91.9513 394.996C89.1381 398.146 90.586 402.178 94.2515 403.83ZM95.5002 415.193C95.3475 410.687 98.1883 408.984 101.659 407.867C102.808 411.721 99.6299 414.93 95.5002 415.193ZM95.5002 422.14C95.3475 417.635 98.1883 415.935 101.659 414.815C102.808 418.667 99.6299 421.878 95.5002 422.14ZM95.5002 408.254C95.3475 403.748 98.1883 402.045 101.659 400.924C102.808 404.782 99.6299 407.988 95.5002 408.254ZM93.4671 417.008C93.6219 412.503 90.7789 410.798 87.3106 409.683C86.1573 413.538 89.3373 416.745 93.4671 417.008ZM93.4671 410.065C93.6219 405.557 90.7789 403.854 87.3106 402.732C86.1573 406.59 89.3373 409.797 93.4671 410.065Z" fill="#49BB76" fill-opacity="0.72"/>
<path fill-rule="evenodd" clip-rule="evenodd" d="M144.347 29.2163C144.502 24.7096 141.659 23.0101 138.191 21.8898C137.037 25.744 140.217 28.9531 144.347 29.2163ZM145.132 9.09C147.343 5.00553 145.511 2.46713 142.831 0.255859C140.018 3.40647 141.466 7.43793 145.132 9.09ZM146.38 20.4534C146.228 15.9468 149.068 14.2435 152.539 13.1269C153.688 16.9811 150.51 20.1902 146.38 20.4534ZM146.38 27.3997C146.228 22.8949 149.068 21.1954 152.539 20.0751C153.688 23.9275 150.51 27.1384 146.38 27.3997ZM146.38 13.5144C146.228 9.00776 149.068 7.30453 152.539 6.18427C153.688 10.0421 150.51 13.2476 146.38 13.5144ZM144.347 22.2681C144.502 17.7633 141.659 16.0583 138.191 14.9435C137.037 18.7977 140.217 22.0049 144.347 22.2681ZM144.347 15.3254C144.502 10.817 141.659 9.11375 138.191 7.99167C137.037 11.8495 140.217 15.0568 144.347 15.3254Z" fill="#49BB76" fill-opacity="0.72"/>
<path d="M128.621 66.0166L145.6 50.4555L162.579 66.0166H128.621Z" fill="#9BB46C" fill-opacity="0.59"/>
<path d="M132.547 55.821L145.6 43.86L158.653 55.821H132.547ZM142.64 56.7384H148.56V73.1037H142.64V56.7384Z" fill="#9BB46C" fill-opacity="0.59"/>
<path fill-rule="evenodd" clip-rule="evenodd" d="M144.347 116.936C144.502 112.43 141.659 110.73 138.191 109.61C137.037 113.464 140.217 116.673 144.347 116.936ZM145.132 96.81C147.343 92.7255 145.511 90.1871 142.831 87.9759C140.018 91.1265 141.466 95.1579 145.132 96.81ZM146.38 108.173C146.228 103.667 149.068 101.964 152.539 100.847C153.688 104.701 150.51 107.91 146.38 108.173ZM146.38 115.12C146.228 110.615 149.068 108.915 152.539 107.795C153.688 111.647 150.51 114.858 146.38 115.12ZM146.38 101.234C146.228 96.7278 149.068 95.0245 152.539 93.9043C153.688 97.7621 150.51 100.968 146.38 101.234ZM144.347 109.988C144.502 105.483 141.659 103.778 138.191 102.663C137.037 106.518 140.217 109.725 144.347 109.988ZM144.347 103.045C144.502 98.537 141.659 96.8338 138.191 95.7117C137.037 99.5695 140.217 102.777 144.347 103.045Z" fill="#6CB4A8" fill-opacity="0.63"/>
<path fill-rule="evenodd" clip-rule="evenodd" d="M136.005 151.626C136.005 145.588 145.763 132.24 145.763 132.24C145.763 132.24 155.519 145.59 155.519 151.626C155.519 155.732 152.327 160.345 145.763 160.345C139.202 160.345 136.005 155.732 136.005 151.626Z" fill="#9BB46C" fill-opacity="0.59"/>
<path fill-rule="evenodd" clip-rule="evenodd" d="M136.005 195.486C136.005 189.448 145.763 176.1 145.763 176.1C145.763 176.1 155.519 189.45 155.519 195.486C155.519 199.592 152.327 204.205 145.763 204.205C139.202 204.205 136.005 199.592 136.005 195.486Z" fill="#49BB76" fill-opacity="0.72"/>
<path d="M128.621 241.457L145.6 225.895L162.579 241.457H128.621Z" fill="#9BB46C" fill-opacity="0.59"/>
<path d="M132.547 231.261L145.6 219.3L158.653 231.261H132.547ZM142.64 232.178H148.56V248.544H142.64V232.178Z" fill="#9BB46C" fill-opacity="0.59"/>
<path fill-rule="evenodd" clip-rule="evenodd" d="M144.347 292.376C144.502 287.87 141.659 286.17 138.191 285.05C137.037 288.904 140.217 292.113 144.347 292.376ZM145.132 272.25C147.343 268.166 145.511 265.627 142.831 263.416C140.018 266.566 141.466 270.598 145.132 272.25ZM146.38 283.613C146.228 279.107 149.068 277.404 152.539 276.287C153.688 280.141 150.51 283.35 146.38 283.613ZM146.38 290.56C146.228 286.055 149.068 284.355 152.539 283.235C153.688 287.087 150.51 290.298 146.38 290.56ZM146.38 276.674C146.228 272.168 149.068 270.465 152.539 269.344C153.688 273.202 150.51 276.408 146.38 276.674ZM144.347 285.428C144.502 280.923 141.659 279.218 138.191 278.103C137.037 281.958 140.217 285.165 144.347 285.428ZM144.347 278.485C144.502 273.977 141.659 272.274 138.191 271.152C137.037 275.009 140.217 278.217 144.347 278.485Z" fill="#9BB46C" fill-opacity="0.59"/>
<path d="M128.621 329.177L145.6 313.615L162.579 329.177H128.621Z" fill="#49BB76" fill-opacity="0.72"/>
<path d="M132.547 318.981L145.6 307.02L158.653 318.981H132.547ZM142.64 319.898H148.56V336.264H142.64V319.898Z" fill="#49BB76" fill-opacity="0.72"/>
<path fill-rule="evenodd" clip-rule="evenodd" d="M136.005 370.926C136.005 364.888 145.763 351.54 145.763 351.54C145.763 351.54 155.519 364.89 155.519 370.926C155.519 375.032 152.327 379.645 145.763 379.645C139.202 379.645 136.005 375.032 136.005 370.926Z" fill="#49BB76" fill-opacity="0.72"/>
<path d="M152.429 416.043C148.07 419.801 141.004 419.799 136.647 416.043C132.289 412.286 132.289 406.195 136.647 402.439C138.716 400.654 142.195 398.463 147.701 398.463C157.769 398.463 160.896 396.175 160.896 396.175C160.896 406.604 156.787 412.286 152.429 416.043Z" fill="#6CB4A8" fill-opacity="0.63"/>
<path d="M135.473 415.987L134.05 413.424L147.697 405.451L135.473 415.987Z" fill="#6CB4A8" fill-opacity="0.63"/>
<path d="M147.697 405.451L150.135 407.553L132.744 422.544L130.304 420.442L147.697 405.451Z" fill="#6CB4A8" fill-opacity="0.63"/>
<path fill-rule="evenodd" clip-rule="evenodd" d="M186.885 20.0458C186.885 14.0078 196.643 0.659729 196.643 0.659729C196.643 0.659729 206.399 14.0096 206.399 20.0458C206.399 24.1522 203.207 28.7648 196.643 28.7648C190.082 28.7648 186.885 24.1522 186.885 20.0458Z" fill="#9BB46C" fill-opacity="0.59"/>
<path fill-rule="evenodd" clip-rule="evenodd" d="M196.198 70.7042C196.713 66.2478 195.307 61.7841 192.248 58.1639C189.205 54.534 184.719 51.9954 179.645 51.0311C179.127 55.4883 180.532 59.9538 183.59 63.5751C186.634 67.2063 191.122 69.7428 196.198 70.7042ZM194.14 56.9833C194.947 57.949 195.657 58.9732 196.26 60.0444C196.86 58.9736 197.567 57.9495 198.371 56.9833C199.296 55.8907 200.345 54.8805 201.502 53.9679C201.024 50.2151 199.206 46.6831 196.298 43.86C193.377 46.6997 191.557 50.2543 191.091 54.0282C192.215 54.9263 193.236 55.916 194.14 56.9833ZM212.865 51.0293C207.791 51.9938 203.305 54.5332 200.262 58.1639C199.093 59.5544 198.155 61.0793 197.476 62.6942C198.376 65.0999 198.745 67.6295 198.564 70.1523C202.726 68.9414 206.347 66.6424 208.922 63.5751C211.98 59.9535 213.384 55.4863 212.865 51.0293Z" fill="#6CB4A8" fill-opacity="0.63"/>
<path d="M179.501 109.877L196.48 94.3155L213.459 109.877H179.501Z" fill="#49BB76" fill-opacity="0.72"/>
<path d="M183.427 99.681L196.48 87.72L209.533 99.681H183.427ZM193.52 100.598H199.44V116.964H193.52V100.598Z" fill="#49BB76" fill-opacity="0.72"/>
<path fill-rule="evenodd" clip-rule="evenodd" d="M196.198 158.424C196.713 153.968 195.307 149.504 192.248 145.884C189.205 142.254 184.719 139.715 179.645 138.751C179.127 143.208 180.532 147.674 183.59 151.295C186.634 154.926 191.122 157.463 196.198 158.424ZM194.14 144.703C194.947 145.669 195.657 146.693 196.26 147.764C196.86 146.694 197.567 145.669 198.371 144.703C199.296 143.611 200.345 142.601 201.502 141.688C201.024 137.935 199.206 134.403 196.298 131.58C193.377 134.42 191.557 137.974 191.091 141.748C192.215 142.646 193.236 143.636 194.14 144.703ZM212.865 138.749C207.791 139.714 203.305 142.253 200.262 145.884C199.093 147.274 198.155 148.799 197.476 150.414C198.376 152.82 198.745 155.35 198.564 157.872C202.726 156.661 206.347 154.362 208.922 151.295C211.98 147.674 213.384 143.206 212.865 138.749Z" fill="#49BB76" fill-opacity="0.72"/>
<path fill-rule="evenodd" clip-rule="evenodd" d="M195.227 204.656C195.382 200.15 192.539 198.45 189.071 197.33C187.917 201.184 191.097 204.393 195.227 204.656ZM196.011 184.53C198.223 180.446 196.391 177.907 193.711 175.696C190.898 178.846 192.346 182.878 196.011 184.53ZM197.26 195.893C197.108 191.387 199.948 189.684 203.419 188.567C204.568 192.421 201.39 195.63 197.26 195.893ZM197.26 202.84C197.108 198.335 199.948 196.635 203.419 195.515C204.568 199.367 201.39 202.578 197.26 202.84ZM197.26 188.954C197.108 184.448 199.948 182.745 203.419 181.624C204.568 185.482 201.39 188.688 197.26 188.954ZM195.227 197.708C195.382 193.203 192.539 191.498 189.071 190.383C187.917 194.238 191.097 197.445 195.227 197.708ZM195.227 190.765C195.382 186.257 192.539 184.554 189.071 183.432C187.917 187.29 191.097 190.497 195.227 190.765Z" fill="#9BB46C" fill-opacity="0.59"/>
<path fill-rule="evenodd" clip-rule="evenodd" d="M196.198 246.144C196.713 241.688 195.307 237.224 192.248 233.604C189.205 229.974 184.719 227.435 179.645 226.471C179.127 230.928 180.532 235.394 183.59 239.015C186.634 242.646 191.122 245.183 196.198 246.144ZM194.14 232.423C194.947 233.389 195.657 234.413 196.26 235.484C196.86 234.414 197.567 233.389 198.371 232.423C199.296 231.331 200.345 230.32 201.502 229.408C201.024 225.655 199.206 222.123 196.298 219.3C193.377 222.14 191.557 225.694 191.091 229.468C192.215 230.366 193.236 231.356 194.14 232.423ZM212.865 226.469C207.791 227.434 203.305 229.973 200.262 233.604C199.093 234.994 198.155 236.519 197.476 238.134C198.376 240.54 198.745 243.07 198.564 245.592C202.726 244.381 206.347 242.082 208.922 239.015C211.98 235.394 213.384 230.926 212.865 226.469Z" fill="#9BB46C" fill-opacity="0.59"/>
<path fill-rule="evenodd" clip-rule="evenodd" d="M186.885 283.206C186.885 277.168 196.643 263.82 196.643 263.82C196.643 263.82 206.399 277.17 206.399 283.206C206.399 287.312 203.207 291.925 196.643 291.925C190.082 291.925 186.885 287.312 186.885 283.206Z" fill="#9BB46C" fill-opacity="0.59"/>
<path d="M184.871 322.804H179.55V320.375H184.871V322.804ZM187.271 315.383L183.514 312.144L185.496 310.436L189.253 313.674L187.271 315.383ZM187.271 327.841L189.253 329.549L185.496 332.79L183.516 331.079L187.271 327.841ZM197.864 311.605H195.045V307.016H197.864V311.605ZM195.045 331.62H197.864V336.207H195.045V331.62ZM205.689 315.383L203.654 313.674L207.462 310.436L209.444 312.144L205.689 315.383ZM205.689 327.795L209.444 331.079L207.462 332.79L203.707 329.548L205.691 327.793L205.689 327.795ZM213.412 320.375V322.804H208.091V320.375H213.41H213.412Z" fill="#6CB4A8" fill-opacity="0.63"/>
<path d="M187.368 321.611C187.368 322.615 187.598 323.609 188.043 324.537C188.489 325.465 189.143 326.307 189.966 327.017C190.79 327.728 191.768 328.291 192.844 328.675C193.92 329.059 195.073 329.257 196.238 329.257C197.403 329.257 198.557 329.059 199.633 328.675C200.709 328.291 201.687 327.728 202.51 327.017C203.334 326.307 203.987 325.465 204.433 324.537C204.879 323.609 205.108 322.615 205.108 321.611C205.108 320.607 204.879 319.612 204.433 318.685C203.987 317.757 203.334 316.914 202.51 316.204C201.687 315.494 200.709 314.931 199.633 314.547C198.557 314.162 197.403 313.965 196.238 313.965C195.073 313.965 193.92 314.162 192.844 314.547C191.768 314.931 190.79 315.494 189.966 316.204C189.143 316.914 188.489 317.757 188.043 318.685C187.598 319.612 187.368 320.607 187.368 321.611Z" fill="#6CB4A8" fill-opacity="0.63"/>
<path d="M179.501 373.037L196.48 357.475L213.459 373.037H179.501Z" fill="#49BB76" fill-opacity="0.72"/>
<path d="M183.427 362.841L196.48 350.88L209.533 362.841H183.427ZM193.52 363.758H199.44V380.124H193.52V363.758Z" fill="#49BB76" fill-opacity="0.72"/>
<path fill-rule="evenodd" clip-rule="evenodd" d="M186.885 414.786C186.885 408.748 196.643 395.4 196.643 395.4C196.643 395.4 206.399 408.75 206.399 414.786C206.399 418.892 203.207 423.505 196.643 423.505C190.082 423.505 186.885 418.892 186.885 414.786Z" fill="#6CB4A8" fill-opacity="0.63"/>
<path d="M230.381 22.1566L247.36 6.59546L264.339 22.1566H230.381Z" fill="#9BB46C" fill-opacity="0.59"/>
<path d="M234.307 11.961L247.36 0L260.413 11.961H234.307ZM244.4 12.8784H250.32V29.2437H244.4V12.8784Z" fill="#9BB46C" fill-opacity="0.59"/>
<path d="M254.189 65.1632C249.83 68.9205 242.764 68.9187 238.407 65.1632C234.049 61.4058 234.049 55.3148 238.407 51.5593C240.476 49.7738 243.955 47.5826 249.461 47.5826C259.529 47.5826 262.656 45.2946 262.656 45.2946C262.656 55.7241 258.547 61.4058 254.189 65.1632Z" fill="#9BB46C" fill-opacity="0.59"/>
<path d="M237.233 65.1065L235.81 62.5444L249.457 54.571L237.233 65.1065Z" fill="#9BB46C" fill-opacity="0.59"/>
<path d="M249.457 54.571L251.895 56.6726L234.504 71.6636L232.064 69.562L249.457 54.571Z" fill="#9BB46C" fill-opacity="0.59"/>
<path d="M235.751 103.504H230.43V101.075H235.751V103.504ZM238.151 96.0827L234.394 92.8443L236.376 91.1356L240.133 94.374L238.151 96.0827ZM238.151 108.541L240.133 110.249L236.376 113.49L234.396 111.779L238.151 108.541ZM248.744 92.3052H245.925V87.7164H248.744V92.3052ZM245.925 112.32H248.744V116.907H245.925V112.32ZM256.569 96.0827L254.534 94.374L258.342 91.1356L260.324 92.8443L256.569 96.0827ZM256.569 108.495L260.324 111.779L258.342 113.49L254.587 110.248L256.571 108.493L256.569 108.495ZM264.292 101.075V103.504H258.971V101.075H264.29H264.292Z" fill="#49BB76" fill-opacity="0.72"/>
<path d="M238.248 102.311C238.248 103.315 238.478 104.309 238.923 105.237C239.369 106.165 240.023 107.007 240.846 107.718C241.67 108.428 242.648 108.991 243.724 109.375C244.8 109.759 245.953 109.957 247.118 109.957C248.283 109.957 249.437 109.759 250.513 109.375C251.589 108.991 252.567 108.428 253.39 107.718C254.214 107.007 254.867 106.165 255.313 105.237C255.759 104.309 255.988 103.315 255.988 102.311C255.988 101.307 255.759 100.312 255.313 99.3847C254.867 98.457 254.214 97.6141 253.39 96.9041C252.567 96.194 251.589 95.6308 250.513 95.2466C249.437 94.8623 248.283 94.6645 247.118 94.6645C245.953 94.6645 244.8 94.8623 243.724 95.2466C242.648 95.6308 241.67 96.194 240.846 96.9041C240.023 97.6141 239.369 98.457 238.923 99.3847C238.478 100.312 238.248 101.307 238.248 102.311Z" fill="#49BB76" fill-opacity="0.72"/>
<path d="M230.381 153.737L247.36 138.175L264.339 153.737H230.381Z" fill="#49BB76" fill-opacity="0.72"/>
<path d="M234.307 143.541L247.36 131.58L260.413 143.541H234.307ZM244.4 144.458H250.32V160.824H244.4V144.458Z" fill="#49BB76" fill-opacity="0.72"/>
<path d="M254.189 196.743C249.83 200.501 242.764 200.499 238.407 196.743C234.049 192.986 234.049 186.895 238.407 183.139C240.476 181.354 243.955 179.163 249.461 179.163C259.529 179.163 262.656 176.875 262.656 176.875C262.656 187.304 258.547 192.986 254.189 196.743Z" fill="#49BB76" fill-opacity="0.72"/>
<path d="M237.233 196.687L235.81 194.124L249.457 186.151L237.233 196.687Z" fill="#49BB76" fill-opacity="0.72"/>
<path d="M249.457 186.151L251.895 188.253L234.504 203.244L232.064 201.142L249.457 186.151Z" fill="#49BB76" fill-opacity="0.72"/>
<path d="M230.381 241.457L247.36 225.895L264.339 241.457H230.381Z" fill="#6CB4A8" fill-opacity="0.63"/>
<path d="M234.307 231.261L247.36 219.3L260.413 231.261H234.307ZM244.4 232.178H250.32V248.544H244.4V232.178Z" fill="#6CB4A8" fill-opacity="0.63"/>
<path d="M235.751 278.944H230.43V276.515H235.751V278.944ZM238.151 271.523L234.394 268.284L236.376 266.576L240.133 269.814L238.151 271.523ZM238.151 283.981L240.133 285.689L236.376 288.93L234.396 287.219L238.151 283.981ZM248.744 267.745H245.925V263.156H248.744V267.745ZM245.925 287.76H248.744V292.347H245.925V287.76ZM256.569 271.523L254.534 269.814L258.342 266.576L260.324 268.284L256.569 271.523ZM256.569 283.935L260.324 287.219L258.342 288.93L254.587 285.688L256.571 283.933L256.569 283.935ZM264.292 276.515V278.944H258.971V276.515H264.29H264.292Z" fill="#9BB46C" fill-opacity="0.59"/>
<path d="M238.248 277.751C238.248 278.755 238.478 279.749 238.923 280.677C239.369 281.605 240.023 282.447 240.846 283.157C241.67 283.868 242.648 284.431 243.724 284.815C244.8 285.199 245.953 285.397 247.118 285.397C248.283 285.397 249.437 285.199 250.513 284.815C251.589 284.431 252.567 283.868 253.39 283.157C254.214 282.447 254.867 281.605 255.313 280.677C255.759 279.749 255.988 278.755 255.988 277.751C255.988 276.747 255.759 275.752 255.313 274.825C254.867 273.897 254.214 273.054 253.39 272.344C252.567 271.634 251.589 271.071 250.513 270.687C249.437 270.302 248.283 270.105 247.118 270.105C245.953 270.105 244.8 270.302 243.724 270.687C242.648 271.071 241.67 271.634 240.846 272.344C240.023 273.054 239.369 273.897 238.923 274.825C238.478 275.752 238.248 276.747 238.248 277.751Z" fill="#9BB46C" fill-opacity="0.59"/>
<path fill-rule="evenodd" clip-rule="evenodd" d="M237.765 327.066C237.765 321.028 247.523 307.68 247.523 307.68C247.523 307.68 257.279 321.03 257.279 327.066C257.279 331.172 254.087 335.785 247.523 335.785C240.962 335.785 237.765 331.172 237.765 327.066Z" fill="#9BB46C" fill-opacity="0.59"/>
<path fill-rule="evenodd" clip-rule="evenodd" d="M247.078 377.724C247.593 373.268 246.187 368.804 243.128 365.184C240.085 361.554 235.599 359.015 230.525 358.051C230.007 362.508 231.412 366.974 234.47 370.595C237.514 374.226 242.002 376.763 247.078 377.724ZM245.02 364.003C245.827 364.969 246.537 365.993 247.14 367.064C247.74 365.994 248.447 364.969 249.251 364.003C250.176 362.911 251.225 361.901 252.382 360.988C251.904 357.235 250.086 353.703 247.178 350.88C244.257 353.72 242.437 357.274 241.971 361.048C243.095 361.946 244.116 362.936 245.02 364.003ZM263.745 358.049C258.671 359.014 254.185 361.553 251.142 365.184C249.973 366.574 249.035 368.099 248.356 369.714C249.256 372.12 249.625 374.65 249.444 377.172C253.606 375.961 257.227 373.662 259.802 370.595C262.86 366.974 264.264 362.506 263.745 358.049Z" fill="#9BB46C" fill-opacity="0.59"/>
<path fill-rule="evenodd" clip-rule="evenodd" d="M246.107 423.956C246.262 419.45 243.419 417.75 239.951 416.63C238.797 420.484 241.977 423.693 246.107 423.956ZM246.891 403.83C249.103 399.746 247.271 397.207 244.591 394.996C241.778 398.146 243.226 402.178 246.891 403.83ZM248.14 415.193C247.988 410.687 250.828 408.984 254.299 407.867C255.448 411.721 252.27 414.93 248.14 415.193ZM248.14 422.14C247.988 417.635 250.828 415.935 254.299 414.815C255.448 418.667 252.27 421.878 248.14 422.14ZM248.14 408.254C247.988 403.748 250.828 402.045 254.299 400.924C255.448 404.782 252.27 407.988 248.14 408.254ZM246.107 417.008C246.262 412.503 243.419 410.798 239.951 409.683C238.797 413.538 241.977 416.745 246.107 417.008ZM246.107 410.065C246.262 405.557 243.419 403.854 239.951 402.732C238.797 406.59 241.977 409.797 246.107 410.065Z" fill="#49BB76" fill-opacity="0.72"/>
<path fill-rule="evenodd" clip-rule="evenodd" d="M296.987 29.2163C297.142 24.7096 294.299 23.0101 290.831 21.8898C289.677 25.744 292.857 28.9531 296.987 29.2163ZM297.771 9.09C299.983 5.00553 298.151 2.46713 295.471 0.255859C292.658 3.40647 294.106 7.43793 297.771 9.09ZM299.02 20.4534C298.868 15.9468 301.708 14.2435 305.179 13.1269C306.328 16.9811 303.15 20.1902 299.02 20.4534ZM299.02 27.3997C298.868 22.8949 301.708 21.1954 305.179 20.0751C306.328 23.9275 303.15 27.1384 299.02 27.3997ZM299.02 13.5144C298.868 9.00776 301.708 7.30453 305.179 6.18427C306.328 10.0421 303.15 13.2476 299.02 13.5144ZM296.987 22.2681C297.142 17.7633 294.299 16.0583 290.831 14.9435C289.677 18.7977 292.857 22.0049 296.987 22.2681ZM296.987 15.3254C297.142 10.817 294.299 9.11375 290.831 7.99167C289.677 11.8495 292.857 15.0568 296.987 15.3254Z" fill="#49BB76" fill-opacity="0.72"/>
<path fill-rule="evenodd" clip-rule="evenodd" d="M297.958 70.7042C298.473 66.2478 297.067 61.7841 294.008 58.1639C290.965 54.534 286.479 51.9954 281.405 51.0311C280.887 55.4883 282.292 59.9538 285.35 63.5751C288.394 67.2063 292.882 69.7428 297.958 70.7042ZM295.9 56.9833C296.707 57.949 297.417 58.9732 298.02 60.0444C298.62 58.9736 299.327 57.9495 300.131 56.9833C301.056 55.8907 302.104 54.8805 303.262 53.9679C302.784 50.2151 300.966 46.6831 298.058 43.86C295.137 46.6997 293.317 50.2543 292.851 54.0282C293.975 54.9263 294.996 55.916 295.9 56.9833ZM314.625 51.0293C309.551 51.9938 305.065 54.5332 302.022 58.1639C300.853 59.5544 299.915 61.0793 299.236 62.6942C300.136 65.0999 300.505 67.6295 300.324 70.1523C304.486 68.9414 308.107 66.6424 310.682 63.5751C313.74 59.9535 315.144 55.4863 314.625 51.0293Z" fill="#9BB46C" fill-opacity="0.59"/>
<path fill-rule="evenodd" clip-rule="evenodd" d="M288.645 107.766C288.645 101.728 298.403 88.3797 298.403 88.3797C298.403 88.3797 308.159 101.73 308.159 107.766C308.159 111.872 304.967 116.485 298.403 116.485C291.842 116.485 288.645 111.872 288.645 107.766Z" fill="#9BB46C" fill-opacity="0.59"/>
<path fill-rule="evenodd" clip-rule="evenodd" d="M288.645 151.626C288.645 145.588 298.403 132.24 298.403 132.24C298.403 132.24 308.159 145.59 308.159 151.626C308.159 155.732 304.967 160.345 298.403 160.345C291.842 160.345 288.645 155.732 288.645 151.626Z" fill="#9BB46C" fill-opacity="0.59"/>
<path fill-rule="evenodd" clip-rule="evenodd" d="M288.645 195.486C288.645 189.448 298.403 176.1 298.403 176.1C298.403 176.1 308.159 189.45 308.159 195.486C308.159 199.592 304.967 204.205 298.403 204.205C291.842 204.205 288.645 199.592 288.645 195.486Z" fill="#49BB76" fill-opacity="0.72"/>
<path d="M305.069 240.603C300.71 244.361 293.644 244.359 289.287 240.603C284.929 236.846 284.929 230.755 289.287 226.999C291.356 225.214 294.835 223.023 300.341 223.023C310.409 223.023 313.536 220.735 313.536 220.735C313.536 231.164 309.427 236.846 305.069 240.603Z" fill="#49BB76" fill-opacity="0.72"/>
<path d="M288.113 240.547L286.69 237.984L300.337 230.011L288.113 240.547Z" fill="#49BB76" fill-opacity="0.72"/>
<path d="M300.337 230.011L302.775 232.113L285.384 247.104L282.944 245.002L300.337 230.011Z" fill="#49BB76" fill-opacity="0.72"/>
<path d="M305.069 284.463C300.71 288.221 293.644 288.219 289.287 284.463C284.929 280.706 284.929 274.615 289.287 270.859C291.356 269.074 294.835 266.883 300.341 266.883C310.409 266.883 313.536 264.595 313.536 264.595C313.536 275.024 309.427 280.706 305.069 284.463Z" fill="#49BB76" fill-opacity="0.72"/>
<path d="M288.113 284.407L286.69 281.844L300.337 273.871L288.113 284.407Z" fill="#49BB76" fill-opacity="0.72"/>
<path d="M300.337 273.871L302.775 275.973L285.384 290.964L282.944 288.862L300.337 273.871Z" fill="#49BB76" fill-opacity="0.72"/>
<path d="M286.631 322.804H281.31V320.375H286.631V322.804ZM289.031 315.383L285.274 312.144L287.256 310.436L291.013 313.674L289.031 315.383ZM289.031 327.841L291.013 329.549L287.256 332.79L285.276 331.079L289.031 327.841ZM299.624 311.605H296.805V307.016H299.624V311.605ZM296.805 331.62H299.624V336.207H296.805V331.62ZM307.449 315.383L305.414 313.674L309.222 310.436L311.204 312.144L307.449 315.383ZM307.449 327.795L311.204 331.079L309.222 332.79L305.467 329.548L307.451 327.793L307.449 327.795ZM315.172 320.375V322.804H309.851V320.375H315.17H315.172Z" fill="#6CB4A8" fill-opacity="0.63"/>
<path d="M289.128 321.611C289.128 322.615 289.358 323.609 289.803 324.537C290.249 325.465 290.903 326.307 291.726 327.017C292.55 327.728 293.528 328.291 294.604 328.675C295.68 329.059 296.834 329.257 297.998 329.257C299.163 329.257 300.317 329.059 301.393 328.675C302.469 328.291 303.447 327.728 304.27 327.017C305.094 326.307 305.747 325.465 306.193 324.537C306.639 323.609 306.868 322.615 306.868 321.611C306.868 320.607 306.639 319.612 306.193 318.685C305.747 317.757 305.094 316.914 304.27 316.204C303.447 315.494 302.469 314.931 301.393 314.547C300.317 314.162 299.163 313.965 297.998 313.965C296.834 313.965 295.68 314.162 294.604 314.547C293.528 314.931 292.55 315.494 291.726 316.204C290.903 316.914 290.249 317.757 289.803 318.685C289.358 319.612 289.128 320.607 289.128 321.611Z" fill="#6CB4A8" fill-opacity="0.63"/>
<path fill-rule="evenodd" clip-rule="evenodd" d="M296.987 380.096C297.142 375.59 294.299 373.89 290.831 372.77C289.677 376.624 292.857 379.833 296.987 380.096ZM297.771 359.97C299.983 355.886 298.151 353.347 295.471 351.136C292.658 354.286 294.106 358.318 297.771 359.97ZM299.02 371.333C298.868 366.827 301.708 365.124 305.179 364.007C306.328 367.861 303.15 371.07 299.02 371.333ZM299.02 378.28C298.868 373.775 301.708 372.075 305.179 370.955C306.328 374.807 303.15 378.018 299.02 378.28ZM299.02 364.394C298.868 359.888 301.708 358.185 305.179 357.064C306.328 360.922 303.15 364.128 299.02 364.394ZM296.987 373.148C297.142 368.643 294.299 366.938 290.831 365.823C289.677 369.678 292.857 372.885 296.987 373.148ZM296.987 366.205C297.142 361.697 294.299 359.994 290.831 358.872C289.677 362.73 292.857 365.937 296.987 366.205Z" fill="#49BB76" fill-opacity="0.72"/>
<path d="M286.631 410.524H281.31V408.095H286.631V410.524ZM289.031 403.103L285.274 399.864L287.256 398.156L291.013 401.394L289.031 403.103ZM289.031 415.561L291.013 417.269L287.256 420.51L285.276 418.799L289.031 415.561ZM299.624 399.325H296.805V394.736H299.624V399.325ZM296.805 419.34H299.624V423.927H296.805V419.34ZM307.449 403.103L305.414 401.394L309.222 398.156L311.204 399.864L307.449 403.103ZM307.449 415.515L311.204 418.799L309.222 420.51L305.467 417.268L307.451 415.513L307.449 415.515ZM315.172 408.095V410.524H309.851V408.095H315.17H315.172Z" fill="#49BB76" fill-opacity="0.72"/>
<path d="M289.128 409.331C289.128 410.335 289.358 411.329 289.803 412.257C290.249 413.185 290.903 414.027 291.726 414.737C292.55 415.448 293.528 416.011 294.604 416.395C295.68 416.779 296.834 416.977 297.998 416.977C299.163 416.977 300.317 416.779 301.393 416.395C302.469 416.011 303.447 415.448 304.27 414.737C305.094 414.027 305.747 413.185 306.193 412.257C306.639 411.329 306.868 410.335 306.868 409.331C306.868 408.327 306.639 407.332 306.193 406.405C305.747 405.477 305.094 404.634 304.27 403.924C303.447 403.214 302.469 402.651 301.393 402.267C300.317 401.882 299.163 401.685 297.998 401.685C296.834 401.685 295.68 401.882 294.604 402.267C293.528 402.651 292.55 403.214 291.726 403.924C290.903 404.634 290.249 405.477 289.803 406.405C289.358 407.332 289.128 408.327 289.128 409.331Z" fill="#49BB76" fill-opacity="0.72"/>
<path fill-rule="evenodd" clip-rule="evenodd" d="M348.838 26.8441C349.353 22.3878 347.947 17.924 344.888 14.3038C341.845 10.674 337.359 8.13535 332.285 7.17111C331.767 11.6283 333.172 16.0938 336.23 19.7151C339.274 23.3463 343.762 25.8828 348.838 26.8441ZM346.78 13.1233C347.587 14.089 348.297 15.1132 348.9 16.1843C349.5 15.1136 350.207 14.0895 351.011 13.1233C351.936 12.0307 352.985 11.0205 354.142 10.1079C353.664 6.35513 351.846 2.82305 348.938 0C346.017 2.83967 344.197 6.39428 343.731 10.1682C344.855 11.0663 345.876 12.0559 346.78 13.1233ZM365.505 7.16928C360.431 8.13383 355.945 10.6731 352.902 14.3038C351.733 15.6944 350.795 17.2193 350.116 18.8342C351.016 21.2399 351.385 23.7695 351.204 26.2922C355.366 25.0814 358.987 22.7824 361.562 19.7151C364.62 16.0935 366.024 11.6262 365.505 7.16928Z" fill="#6CB4A8" fill-opacity="0.63"/>
<path fill-rule="evenodd" clip-rule="evenodd" d="M347.867 73.0763C348.022 68.5697 345.179 66.8701 341.711 65.7498C340.557 69.604 343.737 72.8131 347.867 73.0763ZM348.651 52.95C350.863 48.8655 349.031 46.3272 346.351 44.1159C343.538 47.2665 344.986 51.298 348.651 52.95ZM349.9 64.3134C349.748 59.8068 352.588 58.1036 356.059 56.987C357.208 60.8412 354.03 64.0502 349.9 64.3134ZM349.9 71.2597C349.748 66.7549 352.588 65.0554 356.059 63.9351C357.208 67.7875 354.03 70.9984 349.9 71.2597ZM349.9 57.3744C349.748 52.8678 352.588 51.1645 356.059 50.0443C357.208 53.9021 354.03 57.1076 349.9 57.3744ZM347.867 66.1281C348.022 61.6233 345.179 59.9183 341.711 58.8035C340.557 62.6577 343.737 65.865 347.867 66.1281ZM347.867 59.1854C348.022 54.677 345.179 52.9738 341.711 51.8517C340.557 55.7095 343.737 58.9168 347.867 59.1854Z" fill="#49BB76" fill-opacity="0.72"/>
<path fill-rule="evenodd" clip-rule="evenodd" d="M339.525 107.766C339.525 101.728 349.283 88.3797 349.283 88.3797C349.283 88.3797 359.04 101.73 359.04 107.766C359.04 111.872 355.847 116.485 349.283 116.485C342.722 116.485 339.525 111.872 339.525 107.766Z" fill="#6CB4A8" fill-opacity="0.63"/>
<path fill-rule="evenodd" clip-rule="evenodd" d="M339.525 151.626C339.525 145.588 349.283 132.24 349.283 132.24C349.283 132.24 359.04 145.59 359.04 151.626C359.04 155.732 355.847 160.345 349.283 160.345C342.722 160.345 339.525 155.732 339.525 151.626Z" fill="#49BB76" fill-opacity="0.72"/>
<path fill-rule="evenodd" clip-rule="evenodd" d="M347.867 204.656C348.022 200.15 345.179 198.45 341.711 197.33C340.557 201.184 343.737 204.393 347.867 204.656ZM348.651 184.53C350.863 180.446 349.031 177.907 346.351 175.696C343.538 178.846 344.986 182.878 348.651 184.53ZM349.9 195.893C349.748 191.387 352.588 189.684 356.059 188.567C357.208 192.421 354.03 195.63 349.9 195.893ZM349.9 202.84C349.748 198.335 352.588 196.635 356.059 195.515C357.208 199.367 354.03 202.578 349.9 202.84ZM349.9 188.954C349.748 184.448 352.588 182.745 356.059 181.624C357.208 185.482 354.03 188.688 349.9 188.954ZM347.867 197.708C348.022 193.203 345.179 191.498 341.711 190.383C340.557 194.238 343.737 197.445 347.867 197.708ZM347.867 190.765C348.022 186.257 345.179 184.554 341.711 183.432C340.557 187.29 343.737 190.497 347.867 190.765Z" fill="#9BB46C" fill-opacity="0.59"/>
<path d="M332.141 241.457L349.12 225.895L366.099 241.457H332.141Z" fill="#49BB76" fill-opacity="0.72"/>
<path d="M336.067 231.261L349.12 219.3L362.173 231.261H336.067ZM346.16 232.178H352.08V248.544H346.16V232.178Z" fill="#49BB76" fill-opacity="0.72"/>
<path fill-rule="evenodd" clip-rule="evenodd" d="M339.525 283.206C339.525 277.168 349.283 263.82 349.283 263.82C349.283 263.82 359.04 277.17 359.04 283.206C359.04 287.312 355.847 291.925 349.283 291.925C342.722 291.925 339.525 287.312 339.525 283.206Z" fill="#9BB46C" fill-opacity="0.59"/>
<path fill-rule="evenodd" clip-rule="evenodd" d="M347.867 336.236C348.022 331.73 345.179 330.03 341.711 328.91C340.557 332.764 343.737 335.973 347.867 336.236ZM348.651 316.11C350.863 312.026 349.031 309.487 346.351 307.276C343.538 310.426 344.986 314.458 348.651 316.11ZM349.9 327.473C349.748 322.967 352.588 321.264 356.059 320.147C357.208 324.001 354.03 327.21 349.9 327.473ZM349.9 334.42C349.748 329.915 352.588 328.215 356.059 327.095C357.208 330.947 354.03 334.158 349.9 334.42ZM349.9 320.534C349.748 316.028 352.588 314.325 356.059 313.204C357.208 317.062 354.03 320.268 349.9 320.534ZM347.867 329.288C348.022 324.783 345.179 323.078 341.711 321.963C340.557 325.818 343.737 329.025 347.867 329.288ZM347.867 322.345C348.022 317.837 345.179 316.134 341.711 315.012C340.557 318.87 343.737 322.077 347.867 322.345Z" fill="#6CB4A8" fill-opacity="0.63"/>
<path fill-rule="evenodd" clip-rule="evenodd" d="M348.838 377.724C349.353 373.268 347.947 368.804 344.888 365.184C341.845 361.554 337.359 359.015 332.285 358.051C331.767 362.508 333.172 366.974 336.23 370.595C339.274 374.226 343.762 376.763 348.838 377.724ZM346.78 364.003C347.587 364.969 348.297 365.993 348.9 367.064C349.5 365.994 350.207 364.969 351.011 364.003C351.936 362.911 352.985 361.901 354.142 360.988C353.664 357.235 351.846 353.703 348.938 350.88C346.017 353.72 344.197 357.274 343.731 361.048C344.855 361.946 345.876 362.936 346.78 364.003ZM365.505 358.049C360.431 359.014 355.945 361.553 352.902 365.184C351.733 366.574 350.795 368.099 350.116 369.714C351.016 372.12 351.385 374.65 351.204 377.172C355.366 375.961 358.987 373.662 361.562 370.595C364.62 366.974 366.024 362.506 365.505 358.049Z" fill="#49BB76" fill-opacity="0.72"/>
<path fill-rule="evenodd" clip-rule="evenodd" d="M339.525 414.786C339.525 408.748 349.283 395.4 349.283 395.4C349.283 395.4 359.04 408.75 359.04 414.786C359.04 418.892 355.847 423.505 349.283 423.505C342.722 423.505 339.525 418.892 339.525 414.786Z" fill="#49BB76" fill-opacity="0.72"/>
<path fill-rule="evenodd" clip-rule="evenodd" d="M-7.32195 465.444C-6.80741 460.988 -8.21327 456.524 -11.2715 452.904C-14.3153 449.274 -18.801 446.735 -23.8749 445.771C-24.3927 450.228 -22.9883 454.694 -19.9296 458.315C-16.8858 461.946 -12.3979 464.483 -7.32195 465.444ZM-9.38047 451.723C-8.57269 452.689 -7.86338 453.713 -7.26047 454.784C-6.65993 453.714 -5.95348 452.689 -5.14895 451.723C-4.22447 450.631 -3.1755 449.62 -2.01771 448.708C-2.49573 444.955 -4.31441 441.423 -7.22231 438.6C-10.1432 441.44 -11.9634 444.994 -12.429 448.768C-11.3048 449.666 -10.2839 450.656 -9.38047 451.723ZM9.34549 445.769C4.27114 446.734 -0.214615 449.273 -3.25791 452.904C-4.42745 454.294 -5.36513 455.819 -6.04359 457.434C-5.14403 459.84 -4.77515 462.369 -4.95603 464.892C-0.79406 463.681 2.82662 461.382 5.40229 458.315C8.46021 454.693 9.86393 450.226 9.34549 445.769Z" fill="#49BB76" fill-opacity="0.72"/>
<path d="M-24.0191 504.617L-7.03999 489.055L9.93909 504.617H-24.0191Z" fill="#49BB76" fill-opacity="0.72"/>
<path d="M-20.0928 494.421L-7.03999 482.46L6.01285 494.421H-20.0928ZM-9.99951 495.338H-4.08047V511.704H-9.99951V495.338Z" fill="#49BB76" fill-opacity="0.72"/>
<path d="M-18.6491 542.104H-23.9703V539.675H-18.6491V542.104ZM-16.2493 534.683L-20.0059 531.444L-18.0237 529.736L-14.2671 532.974L-16.2493 534.683ZM-16.2493 547.141L-14.2671 548.849L-18.0237 552.09L-20.0038 550.379L-16.2493 547.141ZM-5.65563 530.905H-8.47523V526.316H-5.65563V530.905ZM-8.47523 550.92H-5.65563V555.507H-8.47523V550.92ZM2.16929 534.683L0.134094 532.974L3.94162 529.736L5.92381 531.444L2.16929 534.683ZM2.16929 547.095L5.92381 550.379L3.94162 552.09L0.187096 548.848L2.17142 547.093L2.16929 547.095ZM9.89246 539.675V542.104H4.57126V539.675H9.89034H9.89246Z" fill="#9BB46C" fill-opacity="0.59"/>
<path d="M-16.1517 540.911C-16.1517 541.915 -15.9223 542.909 -15.4766 543.837C-15.0308 544.765 -14.3774 545.607 -13.5538 546.317C-12.7301 547.027 -11.7523 547.591 -10.6761 547.975C-9.59993 548.359 -8.4465 548.557 -7.28167 548.557C-6.11683 548.557 -4.9634 548.359 -3.88724 547.975C-2.81107 547.591 -1.83324 547.027 -1.00957 546.317C-0.185912 545.607 0.467453 544.765 0.913216 543.837C1.35898 542.909 1.58841 541.915 1.58841 540.911C1.58841 539.907 1.35898 538.912 0.913216 537.985C0.467453 537.057 -0.185912 536.214 -1.00957 535.504C-1.83324 534.794 -2.81107 534.231 -3.88724 533.847C-4.9634 533.462 -6.11683 533.264 -7.28167 533.264C-8.4465 533.264 -9.59993 533.462 -10.6761 533.847C-11.7523 534.231 -12.7301 534.794 -13.5538 535.504C-14.3774 536.214 -15.0308 537.057 -15.4766 537.985C-15.9223 538.912 -16.1517 539.907 -16.1517 540.911Z" fill="#9BB46C" fill-opacity="0.59"/>
<path d="M-0.211475 591.483C-4.5702 595.241 -11.6362 595.239 -15.9928 591.483C-20.3515 587.726 -20.3515 581.635 -15.9928 577.879C-13.9236 576.094 -10.4447 573.903 -4.93908 573.903C5.1288 573.903 8.2558 571.615 8.2558 571.615C8.2558 582.044 4.14724 587.726 -0.211475 591.483Z" fill="#6CB4A8" fill-opacity="0.63"/>
<path d="M-24.0191 636.197L-7.03999 620.635L9.93909 636.197H-24.0191Z" fill="#6CB4A8" fill-opacity="0.63"/>
<path d="M-20.0928 626.001L-7.03999 614.04L6.01285 626.001H-20.0928ZM-9.99951 626.918H-4.08047V643.284H-9.99951V626.918Z" fill="#6CB4A8" fill-opacity="0.63"/>
<path fill-rule="evenodd" clip-rule="evenodd" d="M-8.29291 687.116C-8.13815 682.61 -10.9811 680.91 -14.4494 679.79C-15.6027 683.644 -12.4227 686.853 -8.29291 687.116ZM-7.50851 666.99C-5.29735 662.906 -7.12903 660.367 -9.80871 658.156C-12.622 661.306 -11.174 665.338 -7.50851 666.99ZM-6.25983 678.353C-6.41247 673.847 -3.57167 672.144 -0.101233 671.027C1.04781 674.881 -2.13007 678.09 -6.25983 678.353ZM-6.25983 685.3C-6.41247 680.795 -3.57167 679.095 -0.101233 677.975C1.04781 681.827 -2.13007 685.038 -6.25983 685.3ZM-6.25983 671.414C-6.41247 666.908 -3.57167 665.205 -0.101233 664.084C1.04781 667.942 -2.13007 671.148 -6.25983 671.414ZM-8.29291 680.168C-8.13815 675.663 -10.9811 673.958 -14.4494 672.844C-15.6027 676.698 -12.4227 679.905 -8.29291 680.168ZM-8.29291 673.225C-8.13815 668.717 -10.9811 667.014 -14.4494 665.892C-15.6027 669.75 -12.4227 672.957 -8.29291 673.225Z" fill="#9BB46C" fill-opacity="0.59"/>
<path d="M-24.0191 723.917L-7.03999 708.355L9.93909 723.917H-24.0191Z" fill="#49BB76" fill-opacity="0.72"/>
<path d="M-20.0928 713.721L-7.03999 701.76L6.01285 713.721H-20.0928ZM-9.99951 714.638H-4.08047V731.004H-9.99951V714.638Z" fill="#49BB76" fill-opacity="0.72"/>
<path fill-rule="evenodd" clip-rule="evenodd" d="M43.5581 465.444C44.0726 460.988 42.6667 456.524 39.6085 452.904C36.5647 449.274 32.079 446.735 27.0051 445.771C26.4873 450.228 27.8917 454.694 30.9504 458.315C33.9942 461.946 38.4821 464.483 43.5581 465.444ZM41.4995 451.723C42.3073 452.689 43.0166 453.713 43.6195 454.784C44.2201 453.714 44.9265 452.689 45.7311 451.723C46.6555 450.631 47.7045 449.62 48.8623 448.708C48.3843 444.955 46.5656 441.423 43.6577 438.6C40.7368 441.44 38.9166 444.994 38.451 448.768C39.5752 449.666 40.5961 450.656 41.4995 451.723ZM60.2255 445.769C55.1511 446.734 50.6654 449.273 47.6221 452.904C46.4526 454.294 45.5149 455.819 44.8364 457.434C45.736 459.84 46.1049 462.369 45.924 464.892C50.0859 463.681 53.7066 461.382 56.2823 458.315C59.3402 454.693 60.7439 450.226 60.2255 445.769Z" fill="#49BB76" fill-opacity="0.72"/>
<path d="M50.6685 503.763C46.3098 507.521 39.2438 507.519 34.8872 503.763C30.5285 500.006 30.5285 493.915 34.8872 490.159C36.9564 488.374 40.4353 486.183 45.9409 486.183C56.0088 486.183 59.1358 483.895 59.1358 483.895C59.1358 494.324 55.0272 500.006 50.6685 503.763Z" fill="#49BB76" fill-opacity="0.72"/>
<path d="M33.7128 503.707L32.2902 501.144L45.9367 493.171L33.7128 503.707Z" fill="#49BB76" fill-opacity="0.72"/>
<path d="M45.9367 493.171L48.3747 495.273L30.9843 510.264L28.5442 508.162L45.9367 493.171Z" fill="#49BB76" fill-opacity="0.72"/>
<path d="M32.2309 542.104H26.9097V539.675H32.2309V542.104ZM34.6307 534.683L30.8741 531.444L32.8563 529.736L36.6129 532.974L34.6307 534.683ZM34.6307 547.141L36.6129 548.849L32.8563 552.09L30.8762 550.379L34.6307 547.141ZM45.2244 530.905H42.4048V526.316H45.2244V530.905ZM42.4048 550.92H45.2244V555.507H42.4048V550.92ZM53.0493 534.683L51.0141 532.974L54.8216 529.736L56.8038 531.444L53.0493 534.683ZM53.0493 547.095L56.8038 550.379L54.8216 552.09L51.0671 548.848L53.0514 547.093L53.0493 547.095ZM60.7724 539.675V542.104H55.4512V539.675H60.7703H60.7724Z" fill="#6CB4A8" fill-opacity="0.63"/>
<path d="M34.7282 540.911C34.7282 541.915 34.9577 542.909 35.4034 543.837C35.8492 544.765 36.5026 545.607 37.3262 546.317C38.1499 547.027 39.1277 547.591 40.2039 547.975C41.2801 548.359 42.4335 548.557 43.5983 548.557C44.7632 548.557 45.9166 548.359 46.9928 547.975C48.0689 547.591 49.0468 547.027 49.8704 546.317C50.6941 545.607 51.3474 544.765 51.7932 543.837C52.239 542.909 52.4684 541.915 52.4684 540.911C52.4684 539.907 52.239 538.912 51.7932 537.985C51.3474 537.057 50.6941 536.214 49.8704 535.504C49.0468 534.794 48.0689 534.231 46.9928 533.847C45.9166 533.462 44.7632 533.264 43.5983 533.264C42.4335 533.264 41.2801 533.462 40.2039 533.847C39.1277 534.231 38.1499 534.794 37.3262 535.504C36.5026 536.214 35.8492 537.057 35.4034 537.985C34.9577 538.912 34.7282 539.907 34.7282 540.911Z" fill="#6CB4A8" fill-opacity="0.63"/>
<path d="M26.8609 592.337L43.84 576.775L60.8191 592.337H26.8609Z" fill="#9BB46C" fill-opacity="0.59"/>
<path d="M30.7872 582.141L43.84 570.18L56.8929 582.141H30.7872ZM40.8805 583.058H46.7995V599.424H40.8805V583.058Z" fill="#9BB46C" fill-opacity="0.59"/>
<path d="M32.2309 629.824H26.9097V627.395H32.2309V629.824ZM34.6307 622.403L30.8741 619.164L32.8563 617.456L36.6129 620.694L34.6307 622.403ZM34.6307 634.861L36.6129 636.569L32.8563 639.81L30.8762 638.099L34.6307 634.861ZM45.2244 618.625H42.4048V614.036H45.2244V618.625ZM42.4048 638.64H45.2244V643.227H42.4048V638.64ZM53.0493 622.403L51.0141 620.694L54.8216 617.456L56.8038 619.164L53.0493 622.403ZM53.0493 634.815L56.8038 638.099L54.8216 639.81L51.0671 636.568L53.0514 634.813L53.0493 634.815ZM60.7724 627.395V629.824H55.4512V627.395H60.7703H60.7724Z" fill="#6CB4A8" fill-opacity="0.63"/>
<path d="M34.7282 628.631C34.7282 629.635 34.9577 630.629 35.4034 631.557C35.8492 632.485 36.5026 633.327 37.3262 634.038C38.1499 634.748 39.1277 635.311 40.2039 635.695C41.2801 636.079 42.4335 636.277 43.5983 636.277C44.7632 636.277 45.9166 636.079 46.9928 635.695C48.0689 635.311 49.0468 634.748 49.8704 634.038C50.6941 633.327 51.3474 632.485 51.7932 631.557C52.239 630.629 52.4684 629.635 52.4684 628.631C52.4684 627.627 52.239 626.632 51.7932 625.705C51.3474 624.777 50.6941 623.934 49.8704 623.224C49.0468 622.514 48.0689 621.951 46.9928 621.567C45.9166 621.182 44.7632 620.985 43.5983 620.985C42.4335 620.985 41.2801 621.182 40.2039 621.567C39.1277 621.951 38.1499 622.514 37.3262 623.224C36.5026 623.934 35.8492 624.777 35.4034 625.705C34.9577 626.632 34.7282 627.627 34.7282 628.631Z" fill="#6CB4A8" fill-opacity="0.63"/>
<path fill-rule="evenodd" clip-rule="evenodd" d="M43.5581 684.744C44.0726 680.288 42.6667 675.824 39.6085 672.204C36.5647 668.574 32.079 666.035 27.0051 665.071C26.4873 669.528 27.8917 673.994 30.9504 677.615C33.9942 681.246 38.4821 683.783 43.5581 684.744ZM41.4995 671.023C42.3073 671.989 43.0166 673.013 43.6195 674.084C44.2201 673.014 44.9265 671.989 45.7311 671.023C46.6555 669.931 47.7045 668.921 48.8623 668.008C48.3843 664.255 46.5656 660.723 43.6577 657.9C40.7368 660.74 38.9166 664.294 38.451 668.068C39.5752 668.966 40.5961 669.956 41.4995 671.023ZM60.2255 665.069C55.1511 666.034 50.6654 668.573 47.6221 672.204C46.4526 673.594 45.5149 675.119 44.8364 676.734C45.736 679.14 46.1049 681.67 45.924 684.192C50.0859 682.981 53.7066 680.682 56.2823 677.615C59.3402 673.994 60.7439 669.526 60.2255 665.069Z" fill="#6CB4A8" fill-opacity="0.63"/>
<path d="M26.8609 723.917L43.84 708.355L60.8191 723.917H26.8609Z" fill="#49BB76" fill-opacity="0.72"/>
<path d="M30.7872 713.721L43.84 701.76L56.8929 713.721H30.7872ZM40.8805 714.638H46.7995V731.004H40.8805V714.638Z" fill="#49BB76" fill-opacity="0.72"/>
<path d="M83.1109 454.384H77.7897V451.955H83.1109V454.384ZM85.5107 446.963L81.7541 443.724L83.7363 442.016L87.4929 445.254L85.5107 446.963ZM85.5107 459.421L87.4929 461.129L83.7363 464.37L81.7562 462.659L85.5107 459.421ZM96.1044 443.185H93.2848V438.596H96.1044V443.185ZM93.2848 463.2H96.1044V467.787H93.2848V463.2ZM103.929 446.963L101.894 445.254L105.702 442.016L107.684 443.724L103.929 446.963ZM103.929 459.375L107.684 462.659L105.702 464.37L101.947 461.128L103.931 459.373L103.929 459.375ZM111.652 451.955V454.384H106.331V451.955H111.65H111.652Z" fill="#49BB76" fill-opacity="0.72"/>
<path d="M85.6082 453.191C85.6082 454.195 85.8377 455.189 86.2834 456.117C86.7292 457.045 87.3826 457.887 88.2062 458.597C89.0299 459.308 90.0077 459.871 91.0839 460.255C92.1601 460.639 93.3135 460.837 94.4783 460.837C95.6432 460.837 96.7966 460.639 97.8728 460.255C98.9489 459.871 99.9268 459.308 100.75 458.597C101.574 457.887 102.227 457.045 102.673 456.117C103.119 455.189 103.348 454.195 103.348 453.191C103.348 452.187 103.119 451.192 102.673 450.265C102.227 449.337 101.574 448.494 100.75 447.784C99.9268 447.074 98.9489 446.511 97.8728 446.127C96.7966 445.742 95.6432 445.545 94.4783 445.545C93.3135 445.545 92.1601 445.742 91.0839 446.127C90.0077 446.511 89.0299 447.074 88.2062 447.784C87.3826 448.494 86.7292 449.337 86.2834 450.265C85.8377 451.192 85.6082 452.187 85.6082 453.191Z" fill="#49BB76" fill-opacity="0.72"/>
<path fill-rule="evenodd" clip-rule="evenodd" d="M85.1249 502.506C85.1249 496.468 94.8832 483.12 94.8832 483.12C94.8832 483.12 104.639 496.47 104.639 502.506C104.639 506.612 101.447 511.225 94.8832 511.225C88.3218 511.225 85.1249 506.612 85.1249 502.506Z" fill="#49BB76" fill-opacity="0.72"/>
<path d="M77.7409 548.477L94.72 532.915L111.699 548.477H77.7409Z" fill="#6CB4A8" fill-opacity="0.63"/>
<path d="M81.6672 538.281L94.72 526.32L107.773 538.281H81.6672ZM91.7605 539.198H97.6795V555.564H91.7605V539.198Z" fill="#6CB4A8" fill-opacity="0.63"/>
<path fill-rule="evenodd" clip-rule="evenodd" d="M93.4671 599.396C93.6219 594.89 90.7789 593.19 87.3106 592.07C86.1573 595.924 89.3373 599.133 93.4671 599.396ZM94.2515 579.27C96.4627 575.186 94.631 572.647 91.9513 570.436C89.1381 573.586 90.586 577.618 94.2515 579.27ZM95.5002 590.633C95.3475 586.127 98.1883 584.424 101.659 583.307C102.808 587.161 99.6299 590.37 95.5002 590.633ZM95.5002 597.58C95.3475 593.075 98.1883 591.375 101.659 590.255C102.808 594.107 99.6299 597.318 95.5002 597.58ZM95.5002 583.694C95.3475 579.188 98.1883 577.485 101.659 576.364C102.808 580.222 99.6299 583.428 95.5002 583.694ZM93.4671 592.448C93.6219 587.943 90.7789 586.238 87.3106 585.123C86.1573 588.978 89.3373 592.185 93.4671 592.448ZM93.4671 585.505C93.6219 580.997 90.7789 579.294 87.3106 578.172C86.1573 582.03 89.3373 585.237 93.4671 585.505Z" fill="#9BB46C" fill-opacity="0.59"/>
<path d="M83.1109 629.824H77.7897V627.395H83.1109V629.824ZM85.5107 622.403L81.7541 619.164L83.7363 617.456L87.4929 620.694L85.5107 622.403ZM85.5107 634.861L87.4929 636.569L83.7363 639.81L81.7562 638.099L85.5107 634.861ZM96.1044 618.625H93.2848V614.036H96.1044V618.625ZM93.2848 638.64H96.1044V643.227H93.2848V638.64ZM103.929 622.403L101.894 620.694L105.702 617.456L107.684 619.164L103.929 622.403ZM103.929 634.815L107.684 638.099L105.702 639.81L101.947 636.568L103.931 634.813L103.929 634.815ZM111.652 627.395V629.824H106.331V627.395H111.65H111.652Z" fill="#6CB4A8" fill-opacity="0.63"/>
<path d="M85.6082 628.631C85.6082 629.635 85.8377 630.629 86.2834 631.557C86.7292 632.485 87.3826 633.327 88.2062 634.038C89.0299 634.748 90.0077 635.311 91.0839 635.695C92.1601 636.079 93.3135 636.277 94.4783 636.277C95.6432 636.277 96.7966 636.079 97.8728 635.695C98.9489 635.311 99.9268 634.748 100.75 634.038C101.574 633.327 102.227 632.485 102.673 631.557C103.119 630.629 103.348 629.635 103.348 628.631C103.348 627.627 103.119 626.632 102.673 625.705C102.227 624.777 101.574 623.934 100.75 623.224C99.9268 622.514 98.9489 621.951 97.8728 621.567C96.7966 621.182 95.6432 620.985 94.4783 620.985C93.3135 620.985 92.1601 621.182 91.0839 621.567C90.0077 621.951 89.0299 622.514 88.2062 623.224C87.3826 623.934 86.7292 624.777 86.2834 625.705C85.8377 626.632 85.6082 627.627 85.6082 628.631Z" fill="#6CB4A8" fill-opacity="0.63"/>
<path fill-rule="evenodd" clip-rule="evenodd" d="M85.1249 677.946C85.1249 671.908 94.8832 658.56 94.8832 658.56C94.8832 658.56 104.639 671.91 104.639 677.946C104.639 682.052 101.447 686.665 94.8832 686.665C88.3218 686.665 85.1249 682.052 85.1249 677.946Z" fill="#9BB46C" fill-opacity="0.59"/>
<path fill-rule="evenodd" clip-rule="evenodd" d="M94.438 728.604C94.9526 724.148 93.5467 719.684 90.4885 716.064C87.4447 712.434 82.959 709.895 77.8851 708.931C77.3673 713.388 78.7717 717.854 81.8304 721.475C84.8742 725.106 89.3621 727.643 94.438 728.604ZM92.3795 714.883C93.1873 715.849 93.8966 716.873 94.4995 717.944C95.1001 716.874 95.8065 715.849 96.611 714.883C97.5355 713.791 98.5845 712.781 99.7423 711.868C99.2643 708.115 97.4456 704.583 94.5377 701.76C91.6168 704.6 89.7966 708.154 89.331 711.928C90.4552 712.826 91.4761 713.816 92.3795 714.883ZM111.105 708.929C106.031 709.894 101.545 712.433 98.5021 716.064C97.3325 717.454 96.3949 718.979 95.7164 720.594C96.616 723 96.9848 725.53 96.804 728.052C100.966 726.841 104.587 724.542 107.162 721.475C110.22 717.854 111.624 713.386 111.105 708.929Z" fill="#6CB4A8" fill-opacity="0.63"/>
<path fill-rule="evenodd" clip-rule="evenodd" d="M144.347 467.816C144.502 463.31 141.659 461.61 138.191 460.49C137.037 464.344 140.217 467.553 144.347 467.816ZM145.131 447.69C147.343 443.606 145.511 441.067 142.831 438.856C140.018 442.006 141.466 446.038 145.131 447.69ZM146.38 459.053C146.228 454.547 149.068 452.844 152.539 451.727C153.688 455.581 150.51 458.79 146.38 459.053ZM146.38 466C146.228 461.495 149.068 459.795 152.539 458.675C153.688 462.527 150.51 465.738 146.38 466ZM146.38 452.114C146.228 447.608 149.068 445.905 152.539 444.784C153.688 448.642 150.51 451.848 146.38 452.114ZM144.347 460.868C144.502 456.363 141.659 454.658 138.191 453.543C137.037 457.398 140.217 460.605 144.347 460.868ZM144.347 453.925C144.502 449.417 141.659 447.714 138.191 446.592C137.037 450.45 140.217 453.657 144.347 453.925Z" fill="#49BB76" fill-opacity="0.72"/>
<path d="M128.621 504.617L145.6 489.055L162.579 504.617H128.621Z" fill="#9BB46C" fill-opacity="0.59"/>
<path d="M132.547 494.421L145.6 482.46L158.653 494.421H132.547ZM142.64 495.338H148.56V511.704H142.64V495.338Z" fill="#9BB46C" fill-opacity="0.59"/>
<path fill-rule="evenodd" clip-rule="evenodd" d="M144.347 555.536C144.502 551.03 141.659 549.33 138.191 548.21C137.037 552.064 140.217 555.273 144.347 555.536ZM145.131 535.41C147.343 531.326 145.511 528.787 142.831 526.576C140.018 529.726 141.466 533.758 145.131 535.41ZM146.38 546.773C146.228 542.267 149.068 540.564 152.539 539.447C153.688 543.301 150.51 546.51 146.38 546.773ZM146.38 553.72C146.228 549.215 149.068 547.515 152.539 546.395C153.688 550.247 150.51 553.458 146.38 553.72ZM146.38 539.834C146.228 535.328 149.068 533.625 152.539 532.504C153.688 536.362 150.51 539.568 146.38 539.834ZM144.347 548.588C144.502 544.083 141.659 542.378 138.191 541.263C137.037 545.118 140.217 548.325 144.347 548.588ZM144.347 541.645C144.502 537.137 141.659 535.434 138.191 534.312C137.037 538.17 140.217 541.377 144.347 541.645Z" fill="#6CB4A8" fill-opacity="0.63"/>
<path fill-rule="evenodd" clip-rule="evenodd" d="M136.005 590.226C136.005 584.188 145.763 570.84 145.763 570.84C145.763 570.84 155.519 584.19 155.519 590.226C155.519 594.332 152.327 598.945 145.763 598.945C139.202 598.945 136.005 594.332 136.005 590.226Z" fill="#9BB46C" fill-opacity="0.59"/>
<path fill-rule="evenodd" clip-rule="evenodd" d="M136.005 634.086C136.005 628.048 145.763 614.7 145.763 614.7C145.763 614.7 155.519 628.05 155.519 634.086C155.519 638.192 152.327 642.805 145.763 642.805C139.202 642.805 136.005 638.192 136.005 634.086Z" fill="#49BB76" fill-opacity="0.72"/>
<path d="M128.621 680.057L145.6 664.495L162.579 680.057H128.621Z" fill="#9BB46C" fill-opacity="0.59"/>
<path d="M132.547 669.861L145.6 657.9L158.653 669.861H132.547ZM142.64 670.778H148.56V687.144H142.64V670.778Z" fill="#9BB46C" fill-opacity="0.59"/>
<path fill-rule="evenodd" clip-rule="evenodd" d="M144.347 730.976C144.502 726.47 141.659 724.77 138.191 723.65C137.037 727.504 140.217 730.713 144.347 730.976ZM145.131 710.85C147.343 706.766 145.511 704.227 142.831 702.016C140.018 705.166 141.466 709.198 145.131 710.85ZM146.38 722.213C146.228 717.707 149.068 716.004 152.539 714.887C153.688 718.741 150.51 721.95 146.38 722.213ZM146.38 729.16C146.228 724.655 149.068 722.955 152.539 721.835C153.688 725.687 150.51 728.898 146.38 729.16ZM146.38 715.274C146.228 710.768 149.068 709.065 152.539 707.944C153.688 711.802 150.51 715.008 146.38 715.274ZM144.347 724.028C144.502 719.523 141.659 717.818 138.191 716.703C137.037 720.558 140.217 723.765 144.347 724.028ZM144.347 717.085C144.502 712.577 141.659 710.874 138.191 709.752C137.037 713.61 140.217 716.817 144.347 717.085Z" fill="#9BB46C" fill-opacity="0.59"/>
<path fill-rule="evenodd" clip-rule="evenodd" d="M186.885 458.646C186.885 452.608 196.643 439.26 196.643 439.26C196.643 439.26 206.399 452.61 206.399 458.646C206.399 462.752 203.207 467.365 196.643 467.365C190.082 467.365 186.885 462.752 186.885 458.646Z" fill="#9BB46C" fill-opacity="0.59"/>
<path fill-rule="evenodd" clip-rule="evenodd" d="M196.198 509.304C196.713 504.848 195.307 500.384 192.248 496.764C189.205 493.134 184.719 490.595 179.645 489.631C179.127 494.088 180.532 498.554 183.59 502.175C186.634 505.806 191.122 508.343 196.198 509.304ZM194.14 495.583C194.947 496.549 195.657 497.573 196.26 498.644C196.86 497.574 197.567 496.549 198.371 495.583C199.296 494.491 200.345 493.481 201.502 492.568C201.024 488.815 199.206 485.283 196.298 482.46C193.377 485.3 191.557 488.854 191.091 492.628C192.215 493.526 193.236 494.516 194.14 495.583ZM212.865 489.629C207.791 490.594 203.305 493.133 200.262 496.764C199.093 498.154 198.155 499.679 197.476 501.294C198.376 503.7 198.745 506.23 198.564 508.752C202.726 507.541 206.347 505.242 208.922 502.175C211.98 498.554 213.384 494.086 212.865 489.629Z" fill="#6CB4A8" fill-opacity="0.63"/>
<path d="M179.501 548.477L196.48 532.915L213.459 548.477H179.501Z" fill="#49BB76" fill-opacity="0.72"/>
<path d="M183.427 538.281L196.48 526.32L209.533 538.281H183.427ZM193.52 539.198H199.44V555.564H193.52V539.198Z" fill="#49BB76" fill-opacity="0.72"/>
<path fill-rule="evenodd" clip-rule="evenodd" d="M196.198 597.024C196.713 592.568 195.307 588.104 192.248 584.484C189.205 580.854 184.719 578.315 179.645 577.351C179.127 581.808 180.532 586.274 183.59 589.895C186.634 593.526 191.122 596.063 196.198 597.024ZM194.14 583.303C194.947 584.269 195.657 585.293 196.26 586.364C196.86 585.294 197.567 584.269 198.371 583.303C199.296 582.211 200.345 581.201 201.502 580.288C201.024 576.535 199.206 573.003 196.298 570.18C193.377 573.02 191.557 576.574 191.091 580.348C192.215 581.246 193.236 582.236 194.14 583.303ZM212.865 577.349C207.791 578.314 203.305 580.853 200.262 584.484C199.093 585.874 198.155 587.399 197.476 589.014C198.376 591.42 198.745 593.95 198.564 596.472C202.726 595.261 206.347 592.962 208.922 589.895C211.98 586.274 213.384 581.806 212.865 577.349Z" fill="#49BB76" fill-opacity="0.72"/>
<path fill-rule="evenodd" clip-rule="evenodd" d="M195.227 643.256C195.382 638.75 192.539 637.05 189.071 635.93C187.917 639.784 191.097 642.993 195.227 643.256ZM196.011 623.13C198.223 619.046 196.391 616.507 193.711 614.296C190.898 617.446 192.346 621.478 196.011 623.13ZM197.26 634.493C197.108 629.987 199.948 628.284 203.419 627.167C204.568 631.021 201.39 634.23 197.26 634.493ZM197.26 641.44C197.108 636.935 199.948 635.235 203.419 634.115C204.568 637.967 201.39 641.178 197.26 641.44ZM197.26 627.554C197.108 623.048 199.948 621.345 203.419 620.224C204.568 624.082 201.39 627.288 197.26 627.554ZM195.227 636.308C195.382 631.803 192.539 630.098 189.071 628.983C187.917 632.838 191.097 636.045 195.227 636.308ZM195.227 629.365C195.382 624.857 192.539 623.154 189.071 622.032C187.917 625.889 191.097 629.097 195.227 629.365Z" fill="#9BB46C" fill-opacity="0.59"/>
<path fill-rule="evenodd" clip-rule="evenodd" d="M196.198 684.744C196.713 680.288 195.307 675.824 192.248 672.204C189.205 668.574 184.719 666.035 179.645 665.071C179.127 669.528 180.532 673.994 183.59 677.615C186.634 681.246 191.122 683.783 196.198 684.744ZM194.14 671.023C194.947 671.989 195.657 673.013 196.26 674.084C196.86 673.014 197.567 671.989 198.371 671.023C199.296 669.931 200.345 668.921 201.502 668.008C201.024 664.255 199.206 660.723 196.298 657.9C193.377 660.74 191.557 664.294 191.091 668.068C192.215 668.966 193.236 669.956 194.14 671.023ZM212.865 665.069C207.791 666.034 203.305 668.573 200.262 672.204C199.093 673.594 198.155 675.119 197.476 676.734C198.376 679.14 198.745 681.67 198.564 684.192C202.726 682.981 206.347 680.682 208.922 677.615C211.98 673.994 213.384 669.526 212.865 665.069Z" fill="#9BB46C" fill-opacity="0.59"/>
<path fill-rule="evenodd" clip-rule="evenodd" d="M186.885 721.806C186.885 715.768 196.643 702.42 196.643 702.42C196.643 702.42 206.399 715.77 206.399 721.806C206.399 725.912 203.207 730.525 196.643 730.525C190.082 730.525 186.885 725.912 186.885 721.806Z" fill="#9BB46C" fill-opacity="0.59"/>
<path d="M230.381 460.757L247.36 445.195L264.339 460.757H230.381Z" fill="#9BB46C" fill-opacity="0.59"/>
<path d="M234.307 450.561L247.36 438.6L260.413 450.561H234.307ZM244.4 451.478H250.32V467.844H244.4V451.478Z" fill="#9BB46C" fill-opacity="0.59"/>
<path d="M254.189 503.763C249.83 507.521 242.764 507.519 238.407 503.763C234.049 500.006 234.049 493.915 238.407 490.159C240.476 488.374 243.955 486.183 249.461 486.183C259.529 486.183 262.656 483.895 262.656 483.895C262.656 494.324 258.547 500.006 254.189 503.763Z" fill="#9BB46C" fill-opacity="0.59"/>
<path d="M237.233 503.707L235.81 501.144L249.457 493.171L237.233 503.707Z" fill="#9BB46C" fill-opacity="0.59"/>
<path d="M249.457 493.171L251.895 495.273L234.504 510.264L232.064 508.162L249.457 493.171Z" fill="#9BB46C" fill-opacity="0.59"/>
<path d="M235.751 542.104H230.43V539.675H235.751V542.104ZM238.151 534.683L234.394 531.444L236.376 529.736L240.133 532.974L238.151 534.683ZM238.151 547.141L240.133 548.849L236.376 552.09L234.396 550.379L238.151 547.141ZM248.744 530.905H245.925V526.316H248.744V530.905ZM245.925 550.92H248.744V555.507H245.925V550.92ZM256.569 534.683L254.534 532.974L258.342 529.736L260.324 531.444L256.569 534.683ZM256.569 547.095L260.324 550.379L258.342 552.09L254.587 548.848L256.571 547.093L256.569 547.095ZM264.292 539.675V542.104H258.971V539.675H264.29H264.292Z" fill="#49BB76" fill-opacity="0.72"/>
<path d="M238.248 540.911C238.248 541.915 238.478 542.909 238.923 543.837C239.369 544.765 240.023 545.607 240.846 546.317C241.67 547.027 242.648 547.591 243.724 547.975C244.8 548.359 245.953 548.557 247.118 548.557C248.283 548.557 249.437 548.359 250.513 547.975C251.589 547.591 252.567 547.027 253.39 546.317C254.214 545.607 254.867 544.765 255.313 543.837C255.759 542.909 255.988 541.915 255.988 540.911C255.988 539.907 255.759 538.912 255.313 537.985C254.867 537.057 254.214 536.214 253.39 535.504C252.567 534.794 251.589 534.231 250.513 533.847C249.437 533.462 248.283 533.264 247.118 533.264C245.953 533.264 244.8 533.462 243.724 533.847C242.648 534.231 241.67 534.794 240.846 535.504C240.023 536.214 239.369 537.057 238.923 537.985C238.478 538.912 238.248 539.907 238.248 540.911Z" fill="#49BB76" fill-opacity="0.72"/>
<path d="M230.381 592.337L247.36 576.775L264.339 592.337H230.381Z" fill="#49BB76" fill-opacity="0.72"/>
<path d="M234.307 582.141L247.36 570.18L260.413 582.141H234.307ZM244.4 583.058H250.32V599.424H244.4V583.058Z" fill="#49BB76" fill-opacity="0.72"/>
<path d="M254.189 635.343C249.83 639.101 242.764 639.099 238.407 635.343C234.049 631.586 234.049 625.495 238.407 621.739C240.476 619.954 243.955 617.763 249.461 617.763C259.529 617.763 262.656 615.475 262.656 615.475C262.656 625.904 258.547 631.586 254.189 635.343Z" fill="#49BB76" fill-opacity="0.72"/>
<path d="M237.233 635.287L235.81 632.724L249.457 624.751L237.233 635.287Z" fill="#49BB76" fill-opacity="0.72"/>
<path d="M249.457 624.751L251.895 626.853L234.504 641.844L232.064 639.742L249.457 624.751Z" fill="#49BB76" fill-opacity="0.72"/>
<path d="M230.381 680.057L247.36 664.495L264.339 680.057H230.381Z" fill="#6CB4A8" fill-opacity="0.63"/>
<path d="M234.307 669.861L247.36 657.9L260.413 669.861H234.307ZM244.4 670.778H250.32V687.144H244.4V670.778Z" fill="#6CB4A8" fill-opacity="0.63"/>
<path d="M235.751 717.544H230.43V715.115H235.751V717.544ZM238.151 710.123L234.394 706.884L236.376 705.176L240.133 708.414L238.151 710.123ZM238.151 722.581L240.133 724.289L236.376 727.53L234.396 725.819L238.151 722.581ZM248.744 706.345H245.925V701.756H248.744V706.345ZM245.925 726.36H248.744V730.947H245.925V726.36ZM256.569 710.123L254.534 708.414L258.342 705.176L260.324 706.884L256.569 710.123ZM256.569 722.535L260.324 725.819L258.342 727.53L254.587 724.288L256.571 722.533L256.569 722.535ZM264.292 715.115V717.544H258.971V715.115H264.29H264.292Z" fill="#9BB46C" fill-opacity="0.59"/>
<path d="M238.248 716.351C238.248 717.355 238.478 718.349 238.923 719.277C239.369 720.205 240.023 721.047 240.846 721.757C241.67 722.468 242.648 723.031 243.724 723.415C244.8 723.799 245.953 723.997 247.118 723.997C248.283 723.997 249.437 723.799 250.513 723.415C251.589 723.031 252.567 722.468 253.39 721.757C254.214 721.047 254.867 720.205 255.313 719.277C255.759 718.349 255.988 717.355 255.988 716.351C255.988 715.347 255.759 714.352 255.313 713.425C254.867 712.497 254.214 711.654 253.39 710.944C252.567 710.234 251.589 709.671 250.513 709.287C249.437 708.902 248.283 708.704 247.118 708.704C245.953 708.704 244.8 708.902 243.724 709.287C242.648 709.671 241.67 710.234 240.846 710.944C240.023 711.654 239.369 712.497 238.923 713.425C238.478 714.352 238.248 715.347 238.248 716.351Z" fill="#9BB46C" fill-opacity="0.59"/>
<path fill-rule="evenodd" clip-rule="evenodd" d="M296.987 467.816C297.142 463.31 294.299 461.61 290.831 460.49C289.677 464.344 292.857 467.553 296.987 467.816ZM297.771 447.69C299.983 443.606 298.151 441.067 295.471 438.856C292.658 442.006 294.106 446.038 297.771 447.69ZM299.02 459.053C298.868 454.547 301.708 452.844 305.179 451.727C306.328 455.581 303.15 458.79 299.02 459.053ZM299.02 466C298.868 461.495 301.708 459.795 305.179 458.675C306.328 462.527 303.15 465.738 299.02 466ZM299.02 452.114C298.868 447.608 301.708 445.905 305.179 444.784C306.328 448.642 303.15 451.848 299.02 452.114ZM296.987 460.868C297.142 456.363 294.299 454.658 290.831 453.543C289.677 457.398 292.857 460.605 296.987 460.868ZM296.987 453.925C297.142 449.417 294.299 447.714 290.831 446.592C289.677 450.45 292.857 453.657 296.987 453.925Z" fill="#49BB76" fill-opacity="0.72"/>
<path fill-rule="evenodd" clip-rule="evenodd" d="M297.958 509.304C298.473 504.848 297.067 500.384 294.008 496.764C290.965 493.134 286.479 490.595 281.405 489.631C280.887 494.088 282.292 498.554 285.35 502.175C288.394 505.806 292.882 508.343 297.958 509.304ZM295.9 495.583C296.707 496.549 297.417 497.573 298.02 498.644C298.62 497.574 299.327 496.549 300.131 495.583C301.056 494.491 302.104 493.481 303.262 492.568C302.784 488.815 300.966 485.283 298.058 482.46C295.137 485.3 293.317 488.854 292.851 492.628C293.975 493.526 294.996 494.516 295.9 495.583ZM314.625 489.629C309.551 490.594 305.065 493.133 302.022 496.764C300.853 498.154 299.915 499.679 299.236 501.294C300.136 503.7 300.505 506.23 300.324 508.752C304.486 507.541 308.107 505.242 310.682 502.175C313.74 498.554 315.144 494.086 314.625 489.629Z" fill="#9BB46C" fill-opacity="0.59"/>
<path fill-rule="evenodd" clip-rule="evenodd" d="M288.645 546.366C288.645 540.328 298.403 526.98 298.403 526.98C298.403 526.98 308.159 540.33 308.159 546.366C308.159 550.472 304.967 555.085 298.403 555.085C291.842 555.085 288.645 550.472 288.645 546.366Z" fill="#9BB46C" fill-opacity="0.59"/>
<path fill-rule="evenodd" clip-rule="evenodd" d="M288.645 590.226C288.645 584.188 298.403 570.84 298.403 570.84C298.403 570.84 308.159 584.19 308.159 590.226C308.159 594.332 304.967 598.945 298.403 598.945C291.842 598.945 288.645 594.332 288.645 590.226Z" fill="#9BB46C" fill-opacity="0.59"/>
<path fill-rule="evenodd" clip-rule="evenodd" d="M288.645 634.086C288.645 628.048 298.403 614.7 298.403 614.7C298.403 614.7 308.159 628.05 308.159 634.086C308.159 638.192 304.967 642.805 298.403 642.805C291.842 642.805 288.645 638.192 288.645 634.086Z" fill="#49BB76" fill-opacity="0.72"/>
<path d="M305.069 679.203C300.71 682.961 293.644 682.959 289.287 679.203C284.929 675.446 284.929 669.355 289.287 665.599C291.356 663.814 294.835 661.623 300.341 661.623C310.409 661.623 313.536 659.335 313.536 659.335C313.536 669.764 309.427 675.446 305.069 679.203Z" fill="#49BB76" fill-opacity="0.72"/>
<path d="M288.113 679.147L286.69 676.584L300.337 668.611L288.113 679.147Z" fill="#49BB76" fill-opacity="0.72"/>
<path d="M300.337 668.611L302.775 670.713L285.384 685.704L282.944 683.602L300.337 668.611Z" fill="#49BB76" fill-opacity="0.72"/>
<path d="M305.069 723.063C300.71 726.821 293.644 726.819 289.287 723.063C284.929 719.306 284.929 713.215 289.287 709.459C291.356 707.674 294.835 705.483 300.341 705.483C310.409 705.483 313.536 703.195 313.536 703.195C313.536 713.624 309.427 719.306 305.069 723.063Z" fill="#49BB76" fill-opacity="0.72"/>
<path d="M288.113 723.007L286.69 720.444L300.337 712.471L288.113 723.007Z" fill="#49BB76" fill-opacity="0.72"/>
<path d="M300.337 712.471L302.775 714.573L285.384 729.564L282.944 727.462L300.337 712.471Z" fill="#49BB76" fill-opacity="0.72"/>
<path fill-rule="evenodd" clip-rule="evenodd" d="M348.838 465.444C349.353 460.988 347.947 456.524 344.888 452.904C341.845 449.274 337.359 446.735 332.285 445.771C331.767 450.228 333.172 454.694 336.23 458.315C339.274 461.946 343.762 464.483 348.838 465.444ZM346.78 451.723C347.587 452.689 348.297 453.713 348.9 454.784C349.5 453.714 350.207 452.689 351.011 451.723C351.936 450.631 352.985 449.62 354.142 448.708C353.664 444.955 351.846 441.423 348.938 438.6C346.017 441.44 344.197 444.994 343.731 448.768C344.855 449.666 345.876 450.656 346.78 451.723ZM365.505 445.769C360.431 446.734 355.945 449.273 352.902 452.904C351.733 454.294 350.795 455.819 350.116 457.434C351.016 459.84 351.385 462.369 351.204 464.892C355.366 463.681 358.987 461.382 361.562 458.315C364.62 454.693 366.024 450.226 365.505 445.769Z" fill="#6CB4A8" fill-opacity="0.63"/>
<path fill-rule="evenodd" clip-rule="evenodd" d="M347.867 511.676C348.022 507.17 345.179 505.47 341.711 504.35C340.557 508.204 343.737 511.413 347.867 511.676ZM348.651 491.55C350.863 487.466 349.031 484.927 346.351 482.716C343.538 485.866 344.986 489.898 348.651 491.55ZM349.9 502.913C349.748 498.407 352.588 496.704 356.059 495.587C357.208 499.441 354.03 502.65 349.9 502.913ZM349.9 509.86C349.748 505.355 352.588 503.655 356.059 502.535C357.208 506.387 354.03 509.598 349.9 509.86ZM349.9 495.974C349.748 491.468 352.588 489.765 356.059 488.644C357.208 492.502 354.03 495.708 349.9 495.974ZM347.867 504.728C348.022 500.223 345.179 498.518 341.711 497.403C340.557 501.258 343.737 504.465 347.867 504.728ZM347.867 497.785C348.022 493.277 345.179 491.574 341.711 490.452C340.557 494.31 343.737 497.517 347.867 497.785Z" fill="#49BB76" fill-opacity="0.72"/>
<path fill-rule="evenodd" clip-rule="evenodd" d="M339.525 546.366C339.525 540.328 349.283 526.98 349.283 526.98C349.283 526.98 359.04 540.33 359.04 546.366C359.04 550.472 355.847 555.085 349.283 555.085C342.722 555.085 339.525 550.472 339.525 546.366Z" fill="#6CB4A8" fill-opacity="0.63"/>
<path fill-rule="evenodd" clip-rule="evenodd" d="M339.525 590.226C339.525 584.188 349.283 570.84 349.283 570.84C349.283 570.84 359.04 584.19 359.04 590.226C359.04 594.332 355.847 598.945 349.283 598.945C342.722 598.945 339.525 594.332 339.525 590.226Z" fill="#49BB76" fill-opacity="0.72"/>
<path fill-rule="evenodd" clip-rule="evenodd" d="M347.867 643.256C348.022 638.75 345.179 637.05 341.711 635.93C340.557 639.784 343.737 642.993 347.867 643.256ZM348.651 623.13C350.863 619.046 349.031 616.507 346.351 614.296C343.538 617.446 344.986 621.478 348.651 623.13ZM349.9 634.493C349.748 629.987 352.588 628.284 356.059 627.167C357.208 631.021 354.03 634.23 349.9 634.493ZM349.9 641.44C349.748 636.935 352.588 635.235 356.059 634.115C357.208 637.967 354.03 641.178 349.9 641.44ZM349.9 627.554C349.748 623.048 352.588 621.345 356.059 620.224C357.208 624.082 354.03 627.288 349.9 627.554ZM347.867 636.308C348.022 631.803 345.179 630.098 341.711 628.983C340.557 632.838 343.737 636.045 347.867 636.308ZM347.867 629.365C348.022 624.857 345.179 623.154 341.711 622.032C340.557 625.889 343.737 629.097 347.867 629.365Z" fill="#9BB46C" fill-opacity="0.59"/>
<path d="M332.141 680.057L349.12 664.495L366.099 680.057H332.141Z" fill="#49BB76" fill-opacity="0.72"/>
<path d="M336.067 669.861L349.12 657.9L362.173 669.861H336.067ZM346.16 670.778H352.08V687.144H346.16V670.778Z" fill="#49BB76" fill-opacity="0.72"/>
<path fill-rule="evenodd" clip-rule="evenodd" d="M339.525 721.806C339.525 715.768 349.283 702.42 349.283 702.42C349.283 702.42 359.04 715.77 359.04 721.806C359.04 725.912 355.847 730.525 349.283 730.525C342.722 730.525 339.525 725.912 339.525 721.806Z" fill="#9BB46C" fill-opacity="0.59"/>
</g>
</g>
<defs>
<clipPath id="clip0_2_12">
<rect width="424" height="731" fill="white" transform="translate(-24)"/>
</clipPath>
</defs>
</svg>
