<svg width="871" height="859" viewBox="0 0 871 859" fill="none" xmlns="http://www.w3.org/2000/svg">
<g opacity="0.95">
<g clip-path="url(#clip0_787_1244)">
<path d="M309.849 430.086C309.849 430.66 310.091 431.208 310.514 431.595C311.984 432.938 313.529 434.116 314.846 435.091C317.931 437.374 321.14 439.395 324.386 441.1C325.76 441.821 327.596 442.737 329.616 443.418C331.043 443.899 332.71 444.41 334.423 444.385C334.435 444.385 334.447 444.385 334.46 444.385C338.987 444.241 343.232 441.922 345.814 438.182C347.216 436.152 348.022 433.819 348.243 431.439L320.31 430.086L348.241 428.734C347.993 426.09 347.027 423.507 345.346 421.336C344.979 420.863 344.578 420.407 344.153 419.982C344.153 419.982 344.153 419.982 344.153 419.982C342.499 418.328 340.454 417.094 338.24 416.413C336.729 415.949 335.33 415.741 334.08 415.795C332.158 415.879 330.312 416.482 328.76 417.061C325.135 418.415 321.819 420.449 318.734 422.416C315.461 424.501 312.772 426.517 310.515 428.578C310.091 428.965 309.849 429.512 309.849 430.086Z" fill="#2FA356"/>
</g>
<g clip-path="url(#clip1_787_1244)">
<path d="M434.624 305.696C434.051 305.696 433.503 305.938 433.116 306.361C431.773 307.831 430.595 309.376 429.62 310.693C427.337 313.778 425.316 316.988 423.611 320.233C422.89 321.607 421.974 323.443 421.293 325.463C420.812 326.89 420.301 328.557 420.325 330.27C420.326 330.282 420.326 330.295 420.326 330.307C420.47 334.834 422.789 339.079 426.529 341.661C428.559 343.063 430.892 343.869 433.272 344.09L434.624 316.157L435.977 344.088C438.62 343.84 441.203 342.874 443.375 341.193C443.848 340.827 444.304 340.425 444.729 340C444.729 340 444.729 340 444.729 340C446.383 338.346 447.617 336.301 448.297 334.087C448.762 332.576 448.97 331.177 448.916 329.927C448.832 328.005 448.228 326.16 447.649 324.607C446.296 320.982 444.262 317.666 442.294 314.581C440.21 311.308 438.194 308.619 436.133 306.362C435.746 305.938 435.198 305.696 434.624 305.696Z" fill="#2FA356"/>
</g>
<g clip-path="url(#clip2_787_1244)">
<path d="M434.63 552.86C435.204 552.86 435.752 552.619 436.139 552.196C437.482 550.725 438.66 549.181 439.635 547.864C441.918 544.779 443.939 541.569 445.644 538.324C446.365 536.949 447.281 535.113 447.962 533.094C448.443 531.667 448.954 530 448.93 528.287C448.929 528.274 448.929 528.262 448.929 528.25C448.785 523.723 446.466 519.478 442.726 516.896C440.696 515.494 438.363 514.687 435.983 514.467L434.63 542.4L433.278 514.469C430.634 514.716 428.051 515.683 425.88 517.364C425.407 517.73 424.951 518.131 424.526 518.556C424.526 518.557 424.526 518.556 424.526 518.557C422.872 520.211 421.638 522.255 420.958 524.469C420.493 525.981 420.285 527.38 420.339 528.629C420.423 530.551 421.027 532.397 421.606 533.95C422.959 537.574 424.993 540.891 426.96 543.976C429.045 547.249 431.061 549.937 433.122 552.195C433.509 552.619 434.056 552.86 434.63 552.86Z" fill="#2FA356"/>
</g>
<g clip-path="url(#clip3_787_1244)">
<path d="M354.599 350.314C354.193 350.72 353.976 351.278 354.002 351.851C354.092 353.84 354.351 355.765 354.593 357.386C355.16 361.181 356 364.88 357.09 368.38C357.552 369.862 358.203 371.808 359.149 373.718C359.818 375.067 360.635 376.607 361.864 377.801C361.873 377.81 361.882 377.818 361.89 377.826C365.194 380.926 369.835 382.288 374.305 381.469C376.732 381.025 378.952 379.946 380.791 378.419L361.995 357.711L382.702 376.504C384.396 374.46 385.539 371.95 385.886 369.226C385.962 368.633 386 368.027 386 367.426C386 367.425 386 367.426 386 367.425C386 365.086 385.427 362.768 384.342 360.721C383.602 359.324 382.76 358.187 381.838 357.342C380.42 356.043 378.688 355.164 377.181 354.476C373.661 352.87 369.877 351.963 366.304 351.173C362.516 350.332 359.19 349.856 356.136 349.718C355.562 349.692 355.005 349.908 354.599 350.314Z" fill="#2FA356"/>
</g>
<g clip-path="url(#clip4_787_1244)">
<path d="M514.401 510.107C514.807 509.701 515.024 509.143 514.998 508.57C514.908 506.581 514.649 504.656 514.407 503.035C513.84 499.24 513 495.541 511.91 492.041C511.448 490.559 510.797 488.613 509.851 486.703C509.182 485.354 508.365 483.814 507.136 482.62C507.127 482.611 507.118 482.603 507.11 482.594C503.806 479.495 499.165 478.133 494.695 478.952C492.268 479.396 490.048 480.475 488.209 482.002L507.005 502.71L486.298 483.916C484.604 485.961 483.461 488.471 483.114 491.195C483.038 491.788 483 492.394 483 492.995C483 492.995 483 492.995 483 492.996C483 495.335 483.573 497.653 484.658 499.7C485.398 501.097 486.24 502.234 487.162 503.079C488.58 504.378 490.312 505.257 491.819 505.945C495.339 507.551 499.123 508.458 502.696 509.248C506.484 510.088 509.81 510.564 512.864 510.703C513.438 510.729 513.995 510.513 514.401 510.107Z" fill="#2FA356"/>
</g>
<g clip-path="url(#clip5_787_1244)">
<path d="M514.397 350.309C513.991 349.903 513.432 349.687 512.86 349.713C510.87 349.802 508.946 350.062 507.324 350.303C503.529 350.871 499.83 351.711 496.33 352.801C494.848 353.262 492.902 353.913 490.993 354.859C489.644 355.529 488.104 356.346 486.909 357.575C486.901 357.583 486.892 357.592 486.884 357.601C483.785 360.904 482.423 365.545 483.241 370.016C483.686 372.443 484.765 374.663 486.292 376.501L507 357.706L488.206 378.412C490.25 380.107 492.76 381.25 495.485 381.597C496.078 381.672 496.684 381.711 497.285 381.711C497.285 381.711 497.285 381.711 497.285 381.711C499.624 381.711 501.943 381.137 503.989 380.053C505.387 379.313 506.523 378.471 507.368 377.549C508.668 376.13 509.546 374.398 510.235 372.891C511.841 369.371 512.747 365.588 513.538 362.015C514.378 358.226 514.854 354.9 514.993 351.846C515.019 351.273 514.802 350.715 514.397 350.309Z" fill="#2FA356"/>
</g>
<g clip-path="url(#clip6_787_1244)">
<path d="M354.603 510.112C355.009 510.518 355.568 510.734 356.14 510.708C358.13 510.619 360.054 510.359 361.676 510.118C365.471 509.55 369.17 508.71 372.67 507.62C374.152 507.159 376.098 506.508 378.007 505.562C379.356 504.892 380.896 504.075 382.091 502.846C382.099 502.838 382.108 502.829 382.116 502.82C385.215 499.517 386.577 494.876 385.759 490.405C385.314 487.978 384.235 485.758 382.708 483.92L362 502.715L380.794 482.009C378.75 480.314 376.24 479.171 373.515 478.824C372.922 478.749 372.316 478.71 371.715 478.71C371.715 478.71 371.715 478.71 371.715 478.71C369.376 478.71 367.057 479.284 365.011 480.368C363.613 481.108 362.477 481.95 361.632 482.872C360.332 484.291 359.454 486.023 358.765 487.53C357.159 491.05 356.253 494.833 355.462 498.406C354.622 502.195 354.146 505.521 354.007 508.575C353.981 509.148 354.198 509.706 354.603 510.112Z" fill="#2FA356"/>
</g>
<g clip-path="url(#clip7_787_1244)">
<path d="M560.405 430.08C560.405 429.506 560.163 428.958 559.74 428.571C558.27 427.228 556.725 426.05 555.408 425.075C552.323 422.792 549.113 420.771 545.868 419.066C544.494 418.345 542.658 417.429 540.638 416.748C539.211 416.267 537.544 415.756 535.831 415.781C535.819 415.781 535.806 415.781 535.794 415.781C531.267 415.925 527.022 418.244 524.44 421.984C523.038 424.014 522.231 426.347 522.011 428.727L549.944 430.08L522.013 431.432C522.26 434.076 523.227 436.659 524.908 438.83C525.274 439.303 525.676 439.759 526.101 440.184C526.101 440.184 526.101 440.184 526.101 440.184C527.755 441.838 529.8 443.072 532.014 443.753C533.525 444.217 534.924 444.425 536.174 444.371C538.096 444.287 539.941 443.684 541.494 443.105C545.118 441.751 548.435 439.717 551.52 437.75C554.793 435.665 557.482 433.649 559.739 431.588C560.163 431.201 560.405 430.654 560.405 430.08Z" fill="#2FA356"/>
</g>
</g>
<g opacity="0.7">
<g clip-path="url(#clip8_787_1244)">
<path d="M657.695 511.22C658.077 510.203 658.013 509.071 657.52 508.104C655.809 504.745 653.855 501.63 652.17 499.025C648.221 492.926 643.878 487.207 639.261 482.027C637.305 479.833 634.66 476.989 631.535 474.438C629.325 472.636 626.711 470.621 623.658 469.523C623.637 469.516 623.615 469.508 623.593 469.5C615.473 466.743 606.407 468.028 599.342 472.937C595.506 475.602 592.524 479.2 590.549 483.272L639.155 504.258L588.753 488.067C587.432 492.917 587.426 498.138 588.96 503.106C589.294 504.188 589.702 505.262 590.173 506.298C590.173 506.298 590.173 506.298 590.173 506.299C592.004 510.331 594.806 513.879 598.277 516.558C600.647 518.387 602.988 519.688 605.238 520.423C608.701 521.553 612.374 521.712 615.51 521.719C622.835 521.733 630.067 520.334 636.844 518.901C644.032 517.384 650.138 515.602 655.511 513.451C656.52 513.047 657.313 512.237 657.695 511.22Z" fill="#2FA356"/>
</g>
<g clip-path="url(#clip9_787_1244)">
<path d="M353.772 648.639C354.789 649.021 355.921 648.957 356.888 648.464C360.247 646.753 363.362 644.799 365.968 643.114C372.066 639.166 377.785 634.822 382.965 630.205C385.159 628.249 388.004 625.605 390.554 622.479C392.356 620.269 394.371 617.655 395.469 614.603C395.477 614.581 395.484 614.559 395.492 614.537C398.249 606.417 396.964 597.352 392.055 590.286C389.39 586.45 385.792 583.468 381.72 581.493L360.734 630.099L376.925 579.697C372.075 578.376 366.854 578.37 361.886 579.904C360.804 580.238 359.73 580.646 358.694 581.117C358.694 581.117 358.694 581.117 358.693 581.117C354.661 582.948 351.113 585.751 348.434 589.222C346.605 591.591 345.304 593.932 344.569 596.182C343.439 599.645 343.28 603.318 343.273 606.454C343.259 613.779 344.658 621.011 346.091 627.788C347.608 634.976 349.391 641.082 351.541 646.455C351.945 647.464 352.755 648.257 353.772 648.639Z" fill="#2FA356"/>
</g>
<g clip-path="url(#clip10_787_1244)">
<path d="M518.252 210.583C517.235 210.201 516.103 210.265 515.136 210.758C511.777 212.469 508.662 214.423 506.057 216.108C499.959 220.057 494.24 224.4 489.059 229.018C486.866 230.973 484.021 233.618 481.47 236.743C479.668 238.953 477.653 241.567 476.556 244.62C476.548 244.641 476.54 244.663 476.533 244.685C473.775 252.805 475.06 261.871 479.969 268.936C482.635 272.772 486.233 275.754 490.304 277.729L511.291 229.123L495.099 279.525C499.949 280.846 505.17 280.852 510.138 279.318C511.22 278.984 512.294 278.576 513.331 278.105C513.331 278.105 513.331 278.105 513.331 278.105C517.363 276.275 520.911 273.472 523.59 270.001C525.42 267.631 526.72 265.29 527.456 263.04C528.585 259.577 528.744 255.904 528.751 252.768C528.765 245.443 527.366 238.212 525.933 231.434C524.416 224.246 522.634 218.14 520.483 212.767C520.079 211.758 519.27 210.966 518.252 210.583Z" fill="#2FA356"/>
</g>
<g clip-path="url(#clip11_787_1244)">
<path d="M525.296 622.821C526.286 622.372 527.041 621.526 527.376 620.494C528.541 616.909 529.363 613.325 530.013 610.291C531.533 603.187 532.506 596.072 532.904 589.143C533.073 586.21 533.214 582.328 532.808 578.314C532.519 575.477 532.096 572.205 530.713 569.27C530.703 569.249 530.693 569.228 530.683 569.207C526.891 561.516 519.572 556.014 511.105 554.489C506.508 553.661 501.855 554.097 497.58 555.579L517.11 604.789L492.919 557.7C488.555 560.195 484.859 563.883 482.431 568.48C481.903 569.482 481.432 570.53 481.031 571.596C481.031 571.596 481.031 571.596 481.031 571.596C479.475 575.742 478.948 580.232 479.507 584.581C479.889 587.55 480.625 590.125 481.696 592.236C483.346 595.484 485.831 598.193 488.044 600.416C493.213 605.605 499.316 609.73 505.122 613.509C511.277 617.519 516.855 620.576 522.175 622.854C523.174 623.282 524.307 623.27 525.296 622.821Z" fill="#2FA356"/>
</g>
<g clip-path="url(#clip12_787_1244)">
<path d="M348.421 233.267C347.432 233.716 346.677 234.562 346.341 235.593C345.176 239.179 344.355 242.763 343.705 245.797C342.184 252.901 341.212 260.016 340.814 266.944C340.645 269.878 340.504 273.76 340.91 277.774C341.199 280.611 341.622 283.883 343.005 286.818C343.015 286.839 343.025 286.86 343.035 286.881C346.826 294.572 354.145 300.074 362.613 301.599C367.21 302.427 371.863 301.991 376.138 300.508L356.608 251.299L380.799 298.388C385.162 295.893 388.858 292.205 391.287 287.607C391.815 286.606 392.286 285.558 392.686 284.492C392.686 284.492 392.686 284.492 392.687 284.492C394.243 280.346 394.77 275.856 394.21 271.507C393.828 268.538 393.092 265.963 392.021 263.852C390.371 260.604 387.887 257.895 385.674 255.672C380.505 250.483 374.402 246.358 368.596 242.579C362.441 238.569 356.863 235.512 351.543 233.233C350.544 232.806 349.411 232.818 348.421 233.267Z" fill="#2FA356"/>
</g>
<g clip-path="url(#clip13_787_1244)">
<path d="M242.081 516.482C242.53 517.471 243.376 518.226 244.408 518.562C247.993 519.727 251.577 520.548 254.611 521.198C261.715 522.719 268.831 523.691 275.759 524.089C278.692 524.258 282.574 524.399 286.588 523.993C289.425 523.704 292.698 523.281 295.633 521.898C295.653 521.888 295.674 521.878 295.695 521.868C303.386 518.077 308.888 510.758 310.413 502.29C311.241 497.693 310.805 493.04 309.323 488.765L260.113 508.295L307.202 484.104C304.707 479.741 301.019 476.045 296.422 473.616C295.42 473.088 294.372 472.617 293.307 472.217C293.306 472.217 293.307 472.217 293.306 472.216C289.161 470.66 284.67 470.133 280.321 470.693C277.352 471.075 274.777 471.811 272.666 472.882C269.419 474.532 266.709 477.016 264.486 479.229C259.297 484.398 255.173 490.501 251.393 496.307C247.383 502.462 244.326 508.04 242.048 513.36C241.62 514.359 241.632 515.492 242.081 516.482Z" fill="#2FA356"/>
</g>
<g clip-path="url(#clip14_787_1244)">
<path d="M631.636 339.606C631.186 338.617 630.341 337.862 629.309 337.526C625.723 336.361 622.139 335.54 619.105 334.89C612.001 333.369 604.886 332.397 597.958 331.999C595.024 331.83 591.143 331.689 587.129 332.095C584.292 332.384 581.019 332.807 578.084 334.19C578.063 334.199 578.043 334.21 578.022 334.22C570.33 338.011 564.828 345.33 563.304 353.798C562.476 358.395 562.911 363.048 564.394 367.323L613.604 347.793L566.515 371.984C569.01 376.347 572.698 380.043 577.295 382.471C578.297 383 579.345 383.471 580.41 383.871C580.41 383.871 580.41 383.871 580.411 383.871C584.556 385.428 589.047 385.955 593.396 385.395C596.365 385.013 598.94 384.277 601.051 383.206C604.298 381.556 607.008 379.072 609.23 376.859C614.42 371.69 618.544 365.587 622.323 359.781C626.333 353.626 629.391 348.048 631.669 342.728C632.097 341.728 632.085 340.596 631.636 339.606Z" fill="#2FA356"/>
</g>
<g clip-path="url(#clip15_787_1244)">
<path d="M213.629 344.484C213.248 345.502 213.311 346.634 213.804 347.6C215.515 350.96 217.469 354.075 219.154 356.68C223.103 362.778 227.446 368.497 232.064 373.678C234.019 375.871 236.664 378.716 239.789 381.267C241.999 383.069 244.613 385.083 247.666 386.181C247.687 386.189 247.709 386.197 247.731 386.204C255.851 388.962 264.917 387.677 271.982 382.768C275.818 380.102 278.8 376.504 280.775 372.433L232.169 351.446L282.571 367.638C283.892 362.788 283.898 357.567 282.364 352.599C282.03 351.517 281.622 350.443 281.151 349.406C281.151 349.406 281.151 349.406 281.151 349.406C279.321 345.374 276.518 341.826 273.047 339.146C270.677 337.317 268.336 336.017 266.086 335.281C262.623 334.152 258.951 333.993 255.814 333.986C248.489 333.972 241.258 335.37 234.48 336.803C227.292 338.32 221.186 340.103 215.813 342.254C214.804 342.658 214.012 343.467 213.629 344.484Z" fill="#2FA356"/>
</g>
</g>
<g opacity="0.5">
<g clip-path="url(#clip16_787_1244)">
<path d="M2.93274 432.067C2.93274 434.047 3.76681 435.937 5.22639 437.271C10.2983 441.905 15.6264 445.968 20.1711 449.333C30.8135 457.207 41.8868 464.181 53.0831 470.061C57.8241 472.55 64.1587 475.71 71.1251 478.059C76.0498 479.717 81.799 481.48 87.7105 481.397C87.7525 481.397 87.7947 481.396 87.8367 481.394C103.456 480.897 118.099 472.897 127.008 459.996C131.845 452.991 134.627 444.943 135.388 436.732L39.0211 432.067L135.38 427.401C134.527 418.281 131.192 409.37 125.393 401.877C124.129 400.246 122.745 398.674 121.278 397.208C121.278 397.207 121.278 397.208 121.278 397.207C115.572 391.501 108.517 387.244 100.879 384.896C95.665 383.293 90.8378 382.575 86.5279 382.762C79.8966 383.053 73.5294 385.134 68.1737 387.132C55.6691 391.8 44.2278 398.819 33.5833 405.606C22.2922 412.798 13.0172 419.751 5.22856 426.862C3.76617 428.198 2.93313 430.086 2.93274 432.067Z" fill="#2FA356"/>
</g>
<g clip-path="url(#clip17_787_1244)">
<path d="M433.391 2.9325C431.411 2.9325 429.521 3.76656 428.187 5.22615C423.553 10.298 419.49 15.6261 416.125 20.1708C408.251 30.8133 401.276 41.8865 395.397 53.0828C392.907 57.8238 389.748 64.1585 387.399 71.1249C385.741 76.0496 383.978 81.7987 384.061 87.7103C384.061 87.7522 384.062 87.7945 384.063 87.8364C384.561 103.455 392.56 118.099 405.462 127.008C412.467 131.844 420.515 134.627 428.726 135.387L433.391 39.0208L438.057 135.38C447.177 134.527 456.088 131.192 463.581 125.393C465.212 124.129 466.784 122.745 468.25 121.278C468.251 121.278 468.25 121.278 468.251 121.277C473.957 115.571 478.214 108.517 480.562 100.879C482.164 95.6648 482.883 90.8375 482.696 86.5277C482.405 79.8963 480.324 73.5292 478.326 68.1735C473.658 55.6689 466.639 44.2275 459.852 33.583C452.66 22.2919 445.707 13.0169 438.595 5.22832C437.26 3.76593 435.371 2.93288 433.391 2.9325Z" fill="#2FA356"/>
</g>
<g clip-path="url(#clip18_787_1244)">
<path d="M433.415 855.624C435.394 855.624 437.285 854.79 438.619 853.331C443.253 848.259 447.316 842.931 450.681 838.386C458.555 827.743 465.529 816.67 471.409 805.474C473.898 800.733 477.057 794.398 479.407 787.432C481.065 782.507 482.828 776.758 482.745 770.846C482.744 770.805 482.743 770.762 482.742 770.72C482.245 755.101 474.245 740.458 461.344 731.549C454.339 726.712 446.291 723.93 438.08 723.169L433.414 819.536L428.749 723.177C419.629 724.03 410.717 727.365 403.225 733.164C401.593 734.428 400.022 735.812 398.555 737.279C398.555 737.279 398.555 737.279 398.555 737.279C392.849 742.985 388.591 750.04 386.244 757.678C384.641 762.892 383.923 767.719 384.109 772.029C384.401 778.66 386.482 785.028 388.48 790.383C393.148 802.888 400.167 814.329 406.954 824.974C414.146 836.265 421.099 845.54 428.21 853.328C429.546 854.791 431.434 855.624 433.415 855.624Z" fill="#2FA356"/>
</g>
<g clip-path="url(#clip19_787_1244)">
<path d="M157.311 156.859C155.911 158.259 155.164 160.185 155.253 162.161C155.563 169.024 156.457 175.664 157.292 181.257C159.249 194.351 162.147 207.112 165.907 219.187C167.499 224.299 169.744 231.012 173.009 237.6C175.319 242.254 178.138 247.566 182.376 251.688C182.406 251.717 182.437 251.746 182.467 251.775C193.863 262.468 209.874 267.165 225.297 264.342C233.67 262.809 241.328 259.085 247.672 253.817L182.83 182.377L254.265 247.214C260.111 240.162 264.053 231.503 265.251 222.104C265.511 220.057 265.643 217.967 265.643 215.893C265.643 215.892 265.643 215.893 265.643 215.892C265.643 207.822 263.665 199.823 259.924 192.763C257.371 187.942 254.466 184.021 251.286 181.105C246.391 176.623 240.417 173.592 235.217 171.217C223.074 165.676 210.021 162.549 197.695 159.821C184.625 156.923 173.15 155.281 162.615 154.802C160.636 154.713 158.712 155.459 157.311 156.859Z" fill="#2FA356"/>
</g>
<g clip-path="url(#clip20_787_1244)">
<path d="M708.616 708.129C710.015 706.729 710.762 704.803 710.674 702.827C710.364 695.964 709.469 689.324 708.635 683.731C706.678 670.637 703.779 657.876 700.02 645.801C698.428 640.689 696.182 633.976 692.918 627.388C690.608 622.734 687.789 617.422 683.55 613.3C683.52 613.271 683.49 613.242 683.459 613.213C672.063 602.52 656.052 597.823 640.63 600.646C632.257 602.179 624.598 605.902 618.255 611.17L683.097 682.611L611.662 617.774C605.816 624.826 601.873 633.485 600.676 642.884C600.416 644.931 600.283 647.021 600.283 649.095C600.283 649.096 600.283 649.095 600.283 649.096C600.283 657.166 602.261 665.164 606.002 672.225C608.556 677.045 611.461 680.967 614.641 683.882C619.536 688.365 625.51 691.396 630.709 693.77C642.852 699.312 655.906 702.439 668.232 705.167C681.302 708.065 692.776 709.707 703.312 710.186C705.291 710.275 707.215 709.529 708.616 708.129Z" fill="#2FA356"/>
</g>
<g clip-path="url(#clip21_787_1244)">
<path d="M708.598 156.842C707.198 155.442 705.272 154.695 703.296 154.784C696.433 155.093 689.793 155.988 684.2 156.822C671.106 158.78 658.345 161.678 646.27 165.437C641.158 167.03 634.445 169.275 627.857 172.54C623.203 174.849 617.891 177.668 613.769 181.907C613.74 181.937 613.711 181.968 613.682 181.998C602.989 193.394 598.292 209.405 601.115 224.827C602.648 233.201 606.371 240.859 611.639 247.203L683.08 182.36L618.243 253.795C625.295 259.641 633.954 263.584 643.353 264.781C645.4 265.042 647.49 265.174 649.564 265.174C649.565 265.174 649.564 265.174 649.565 265.174C657.635 265.174 665.633 263.196 672.694 259.455C677.514 256.901 681.436 253.996 684.351 250.817C688.834 245.921 691.865 239.947 694.239 234.748C699.781 222.605 702.908 209.552 705.636 197.226C708.534 184.156 710.176 172.681 710.655 162.145C710.744 160.167 709.998 158.242 708.598 156.842Z" fill="#2FA356"/>
</g>
<g clip-path="url(#clip22_787_1244)">
<path d="M157.328 708.146C158.728 709.546 160.654 710.293 162.63 710.204C169.493 709.895 176.133 709 181.726 708.166C194.819 706.208 207.581 703.31 219.655 699.55C224.768 697.958 231.481 695.713 238.069 692.448C242.723 690.138 248.035 687.32 252.157 683.081C252.186 683.051 252.215 683.02 252.244 682.99C262.936 671.594 267.634 655.583 264.811 640.16C263.278 631.787 259.554 624.129 254.286 617.785L182.846 682.628L247.683 611.193C240.631 605.347 231.972 601.404 222.573 600.206C220.526 599.946 218.436 599.814 216.362 599.814C216.361 599.814 216.362 599.814 216.361 599.814C208.291 599.814 200.292 601.792 193.232 605.533C188.411 608.086 184.49 610.992 181.574 614.171C177.091 619.066 174.061 625.04 171.686 630.24C166.145 642.383 163.018 655.436 160.29 667.762C157.392 680.832 155.75 692.307 155.271 702.843C155.182 704.821 155.928 706.746 157.328 708.146Z" fill="#2FA356"/>
</g>
<g clip-path="url(#clip23_787_1244)">
<path d="M867.322 432.042C867.322 430.062 866.488 428.171 865.028 426.838C859.957 422.203 854.629 418.14 850.084 414.776C839.441 406.901 828.368 399.927 817.172 394.047C812.431 391.558 806.096 388.399 799.13 386.049C794.205 384.391 788.456 382.628 782.544 382.711C782.502 382.712 782.46 382.713 782.418 382.714C766.799 383.211 752.156 391.211 743.247 404.113C738.41 411.117 735.628 419.166 734.867 427.376L831.234 432.042L734.875 436.708C735.728 445.828 739.063 454.739 744.862 462.231C746.126 463.863 747.51 465.434 748.977 466.901C748.977 466.901 748.977 466.901 748.977 466.902C754.683 472.608 761.738 476.865 769.376 479.212C774.59 480.815 779.417 481.534 783.727 481.347C790.358 481.056 796.725 478.974 802.081 476.977C814.586 472.308 826.027 465.29 836.672 458.503C847.963 451.31 857.238 444.357 865.026 437.246C866.489 435.91 867.322 434.022 867.322 432.042Z" fill="#2FA356"/>
</g>
</g>
<circle cx="435" cy="429" r="59" stroke="#2FA356" stroke-width="2"/>
<defs>
<clipPath id="clip0_787_1244">
<rect width="32" height="32" fill="white" transform="translate(331.627 452.71) rotate(-135)"/>
</clipPath>
<clipPath id="clip1_787_1244">
<rect width="32" height="32" fill="white" transform="translate(412 327.474) rotate(-45)"/>
</clipPath>
<clipPath id="clip2_787_1244">
<rect width="32" height="32" fill="white" transform="translate(457.255 531.083) rotate(135)"/>
</clipPath>
<clipPath id="clip3_787_1244">
<rect width="32" height="32" fill="white" transform="matrix(0 -1 1 0 354 381.71)"/>
</clipPath>
<clipPath id="clip4_787_1244">
<rect width="32" height="32" fill="white" transform="matrix(0 1 -1 0 515 478.71)"/>
</clipPath>
<clipPath id="clip5_787_1244">
<rect width="32" height="32" fill="white" transform="translate(483 349.71)"/>
</clipPath>
<clipPath id="clip6_787_1244">
<rect width="32" height="32" fill="white" transform="matrix(-1 0 0 -1 386 510.71)"/>
</clipPath>
<clipPath id="clip7_787_1244">
<rect width="32" height="32" fill="white" transform="translate(538.627 407.456) rotate(45)"/>
</clipPath>
<clipPath id="clip8_787_1244">
<rect width="60.5806" height="60.5806" fill="white" transform="translate(634.155 456.63) rotate(65.5816)"/>
</clipPath>
<clipPath id="clip9_787_1244">
<rect width="60.5806" height="60.5806" fill="white" transform="translate(408.362 625.099) rotate(155.582)"/>
</clipPath>
<clipPath id="clip10_787_1244">
<rect width="60.5806" height="60.5806" fill="white" transform="translate(463.662 234.123) rotate(-24.4184)"/>
</clipPath>
<clipPath id="clip11_787_1244">
<rect width="60.5806" height="60.5806" fill="white" transform="translate(547.252 567.575) rotate(110.582)"/>
</clipPath>
<clipPath id="clip12_787_1244">
<rect width="60.5806" height="60.5806" fill="white" transform="translate(326.466 288.513) rotate(-69.4184)"/>
</clipPath>
<clipPath id="clip13_787_1244">
<rect width="60.5806" height="60.5806" fill="white" transform="translate(297.327 538.437) rotate(-159.418)"/>
</clipPath>
<clipPath id="clip14_787_1244">
<rect width="60.5806" height="60.5806" fill="white" transform="translate(576.39 317.651) rotate(20.5816)"/>
</clipPath>
<clipPath id="clip15_787_1244">
<rect width="60.5806" height="60.5806" fill="white" transform="translate(237.169 399.074) rotate(-114.418)"/>
</clipPath>
<clipPath id="clip16_787_1244">
<rect width="110.397" height="110.397" fill="white" transform="translate(78.0625 510.117) rotate(-135)"/>
</clipPath>
<clipPath id="clip17_787_1244">
<rect width="110.397" height="110.397" fill="white" transform="translate(355.341 78.0624) rotate(-45)"/>
</clipPath>
<clipPath id="clip18_787_1244">
<rect width="110.397" height="110.397" fill="white" transform="translate(511.465 780.494) rotate(135)"/>
</clipPath>
<clipPath id="clip19_787_1244">
<rect width="110.397" height="110.397" fill="white" transform="matrix(0 -1 1 0 155.246 265.174)"/>
</clipPath>
<clipPath id="clip20_787_1244">
<rect width="110.397" height="110.397" fill="white" transform="matrix(0 1 -1 0 710.681 599.814)"/>
</clipPath>
<clipPath id="clip21_787_1244">
<rect width="110.397" height="110.397" fill="white" transform="translate(600.283 154.777)"/>
</clipPath>
<clipPath id="clip22_787_1244">
<rect width="110.397" height="110.397" fill="white" transform="matrix(-1 0 0 -1 265.643 710.211)"/>
</clipPath>
<clipPath id="clip23_787_1244">
<rect width="110.397" height="110.397" fill="white" transform="translate(792.192 353.991) rotate(45)"/>
</clipPath>
</defs>
</svg>
